<?xml version="1.0" encoding="utf-8"?>
<!-- Generator: Adobe Illustrator 26.0.2, SVG Export Plug-In . SVG Version: 6.00 Build 0)  -->
<svg version="1.1" id="图层_1" xmlns="http://www.w3.org/2000/svg" xmlns:xlink="http://www.w3.org/1999/xlink" x="0px" y="0px"
	 viewBox="0 0 1497.1 162.7" style="enable-background:new 0 0 1497.1 162.7;" xml:space="preserve">
<style type="text/css">
	.st0{fill:#F5B61F;}
	.st1{fill:#22AC38;}
	.st2{fill:#FFF100;}
	.st3{fill:#EA5514;}
	.st4{fill:#2EA7E0;}
	.st5{fill:#7E308D;}
	.st6{fill:#E88AFF;}
	.st7{fill:#E73828;}
	.st8{fill:#FAED00;}
	.st9{fill:#8DC21F;}
	.st10{fill:#946134;}
	.st11{fill-rule:evenodd;clip-rule:evenodd;fill:#7E308D;}
</style>
<g id="图层_2_00000135660151894881627790000001079321597585325701_">
	<g id="图层_1-2">
		<g id="图层_2-2">
			<g id="图层_1-2-2">
				<path class="st0" d="M60.7,7.8c-26.4,0-47.8,21.4-47.8,47.8l0,0h95.6C108.5,29.2,87.1,7.8,60.7,7.8z"/>
			</g>
		</g>
		<path class="st1" d="M542.8,16.3c-8.4,0-16.6,2.7-23.3,7.6h-1.2c-17.5,0-31.7,14.2-31.8,31.7h95.6
			C582.1,33.9,564.5,16.3,542.8,16.3L542.8,16.3z"/>
		<g id="图层_2-3">
			<g id="图层_1-2-3">
				<path class="st2" d="M191.3,19.8h54.5c11.3,0,20.5,9.2,20.5,20.5l0,0v15.3h-95.6V40.3C170.8,29,180,19.8,191.3,19.8z"/>
			</g>
		</g>
		<path class="st3" d="M384.5,13.8c-5,0-10,0.5-14.8,1.5c0.3,1.4,0.4,2.8,0.5,4.2c0,15.1-17.2,27.4-39,28.3
			c-1.1,2.5-1.9,5.1-2.5,7.8h95.6C424.2,55.6,424,13.8,384.5,13.8z"/>
		<polygon class="st4" points="735.1,43.8 728.3,19.8 700,19.8 684.2,19.8 656,19.8 649.1,43.8 644.3,43.8 644.3,55.6 645.7,55.6 
			684.2,55.6 700,55.6 738.5,55.6 739.9,55.6 739.9,43.8 		"/>
		<path d="M172,71.8c0-1.6,0.9-3.1,2.4-3.8c0.9-0.4,1.8-0.6,2.8-0.5c1.2,0,2.3,0.2,3.3,0.8c0.9,0.5,1.5,1.4,1.8,2.3l-2.2,1
			c-0.2-0.5-0.5-1-1-1.3s-1.1-0.5-1.8-0.5c-0.6,0-1.3,0.1-1.8,0.5c-0.4,0.3-0.6,0.8-0.6,1.3s0.2,1,0.6,1.3c0.7,0.4,1.4,0.6,2.2,0.7
			c1.4,0.1,2.6,0.7,3.7,1.6c1.3,1.5,1.5,3.7,0.5,5.4c-0.5,0.7-1.1,1.3-1.9,1.6c-2.1,0.9-4.5,0.8-6.5-0.3c-1-0.6-1.6-1.5-1.9-2.6
			l2.3-1.1c0.2,0.6,0.6,1.2,1.2,1.6c0.6,0.4,1.4,0.6,2.1,0.5c0.7,0.1,1.4-0.1,2-0.5c0.5-0.4,0.7-0.9,0.7-1.5s-0.2-1.1-0.7-1.5
			c-0.7-0.5-1.6-0.8-2.5-0.9c-1.3-0.2-2.4-0.7-3.4-1.5C172.4,73.9,172,72.8,172,71.8z"/>
		<path d="M194.5,75.3v7.3h-2.6v-6.8c0-1.5-0.7-2.3-2.1-2.3c-0.7,0-1.4,0.2-1.9,0.8c-0.5,0.6-0.7,1.4-0.7,2.2v6.2h-2.6v-8.5
			c0-1,0-1.9-0.1-2.5h2.3c0.1,0.6,0.1,1.1,0.1,1.7c0.8-1.3,2.3-2,3.8-1.9c1-0.1,2,0.3,2.8,1.1C194.2,73.2,194.6,74.2,194.5,75.3z"/>
		<path d="M207.4,80.1c0,1.2,0,2,0.1,2.5h-2.3c0,0,0-0.2,0-0.5S205,81.4,205,81c-0.4,0.6-0.9,1.1-1.5,1.4c-0.7,0.3-1.4,0.5-2.1,0.5
			c-0.8,0-1.7-0.3-2.4-0.7c-0.7-0.5-1.3-1.2-1.7-2c-0.4-0.9-0.7-2-0.6-3c0-1,0.2-2.1,0.6-3c0.4-0.8,1-1.5,1.7-2s1.5-0.7,2.4-0.7
			c1.5,0,2.8,0.7,3.6,1.9c0-0.4,0-0.8,0.1-1.1s0-0.5,0-0.5h2.3c-0.1,0.5-0.1,1.4-0.1,2.5L207.4,80.1z M204.7,77.1
			c0.1-1-0.2-1.9-0.8-2.7c-0.8-1.1-2.3-1.3-3.4-0.6l0,0c-0.5,0.3-0.8,0.8-1,1.3c-0.5,1.3-0.5,2.6,0,3.9c0.2,0.5,0.5,1,1,1.3
			c1.1,0.8,2.6,0.6,3.4-0.5C204.5,79,204.8,78,204.7,77.1L204.7,77.1z"/>
		<path d="M214.8,71.3c1,0,2,0.2,2.8,0.7c0.7,0.4,1.2,1.1,1.5,1.9l-2.2,1c-0.1-0.4-0.4-0.8-0.7-1.1c-0.4-0.3-0.9-0.4-1.4-0.4
			c-0.8,0-1.5,0.4-2,1c-1,1.6-1,3.6,0,5.3c0.5,0.6,1.2,1,2,1c0.5,0,1-0.1,1.4-0.4c0.3-0.3,0.6-0.7,0.7-1.1l2.2,1
			c-0.2,0.8-0.7,1.5-1.4,1.9c-0.8,0.5-1.8,0.8-2.8,0.7c-1,0-1.9-0.2-2.7-0.7s-1.5-1.2-1.9-2c-0.5-0.9-0.7-2-0.7-3s0.2-2.1,0.7-3
			c0.4-0.8,1.1-1.5,1.9-2C212.9,71.6,213.8,71.3,214.8,71.3z"/>
		<path d="M227.7,82.6l-4-5.4v5.4h-2.6V67h2.6v9.4l3.8-4.9h3.1l-4.3,5.3l4.6,5.8L227.7,82.6z"/>
		<path d="M232.3,74.6c0-0.6,0.2-1.2,0.5-1.7c0.4-0.5,0.9-0.9,1.5-1.2c0.7-0.3,1.4-0.4,2.2-0.4c1,0,1.9,0.2,2.8,0.6
			c0.7,0.4,1.2,1,1.5,1.8l-2,0.9c-0.3-0.9-1.2-1.5-2.2-1.4c-0.4,0-0.9,0.1-1.2,0.3c-0.3,0.2-0.5,0.5-0.5,0.9s0.2,0.7,0.5,0.9
			c0.5,0.3,1.1,0.4,1.8,0.5c1.1,0.1,2.1,0.5,2.9,1.1c0.7,0.6,1,1.5,1,2.3c0,0.7-0.2,1.3-0.6,1.9c-0.4,0.6-0.9,1-1.6,1.2
			c-0.7,0.3-1.5,0.5-2.3,0.4c-1.1,0-2.1-0.2-3.1-0.7c-0.8-0.4-1.4-1.1-1.6-2l2-0.9c0.2,0.5,0.5,0.9,0.9,1.2c0.5,0.3,1.1,0.5,1.6,0.4
			c0.5,0,1-0.1,1.5-0.3c0.3-0.2,0.5-0.6,0.5-1s-0.2-0.9-0.5-1.1c-0.6-0.3-1.3-0.5-1.9-0.5c-1-0.1-2-0.5-2.8-1.1
			C232.6,76.2,232.3,75.4,232.3,74.6z"/>
		<path d="M487.7,71.8c0-1.6,0.9-3.1,2.4-3.8c0.9-0.4,1.8-0.6,2.8-0.5c1.2,0,2.3,0.2,3.3,0.8c0.9,0.5,1.5,1.4,1.8,2.3l-2.2,1
			c-0.2-0.5-0.5-1-1-1.3s-1.2-0.5-1.8-0.5c-0.6,0-1.3,0.1-1.8,0.5c-0.4,0.3-0.6,0.8-0.6,1.3s0.2,1,0.6,1.3c0.7,0.4,1.4,0.6,2.2,0.7
			c1.4,0.1,2.6,0.7,3.7,1.6c1.3,1.5,1.5,3.7,0.5,5.4c-0.5,0.7-1.2,1.3-1.9,1.6c-0.9,0.4-1.9,0.6-2.8,0.6c-1.3,0-2.5-0.3-3.6-0.9
			c-1-0.6-1.6-1.5-2-2.6l2.3-1.1c0.2,0.6,0.6,1.2,1.2,1.6s1.4,0.6,2.1,0.5c0.7,0.1,1.4-0.1,2-0.5c0.5-0.4,0.7-0.9,0.7-1.5
			s-0.2-1.1-0.7-1.5c-0.8-0.5-1.6-0.7-2.5-0.9c-1.3-0.2-2.4-0.7-3.4-1.5C488.1,73.8,487.7,72.8,487.7,71.8z"/>
		<path d="M510.3,80.1c0,1.2,0,2,0.1,2.5H508c0,0,0-0.2,0-0.5s0-0.7-0.1-1.1c-0.4,0.6-0.9,1.1-1.5,1.4s-1.4,0.5-2.1,0.5
			c-0.8,0-1.7-0.3-2.4-0.7c-0.7-0.5-1.3-1.2-1.7-2c-0.4-0.9-0.6-2-0.6-3s0.2-2.1,0.6-3c0.4-0.8,1-1.5,1.7-2s1.5-0.7,2.4-0.7
			c0.7,0,1.4,0.2,2.1,0.5c0.6,0.3,1.1,0.7,1.5,1.3c0-0.4,0-0.8,0.1-1.1s0-0.5,0-0.6h2.3c0,0.5-0.1,1.4-0.1,2.5L510.3,80.1z
			 M507.6,77.1c0-1-0.2-1.9-0.8-2.7c-0.8-1.1-2.3-1.3-3.4-0.6l0,0c-0.4,0.3-0.8,0.8-1,1.3c-0.2,0.6-0.4,1.3-0.3,2
			c0,0.7,0.1,1.3,0.3,1.9c0.2,0.5,0.6,1,1,1.3c1.1,0.8,2.6,0.6,3.4-0.5c0,0,0,0,0-0.1C507.4,79,507.7,78,507.6,77.1L507.6,77.1z"/>
		<path d="M515.6,67v15.6H513V67H515.6z"/>
		<path d="M528.6,80.1c0,1.2,0,2,0.1,2.5h-2.3c0,0,0-0.2,0-0.5s0-0.7-0.1-1.1c-0.4,0.6-0.9,1.1-1.5,1.4c-0.7,0.3-1.4,0.5-2.1,0.5
			c-0.8,0-1.7-0.3-2.4-0.7c-0.7-0.5-1.3-1.2-1.7-2c-0.4-0.9-0.6-2-0.6-3s0.2-2.1,0.6-3c0.4-0.8,1-1.5,1.7-2s1.5-0.7,2.4-0.7
			c1.5,0,2.8,0.7,3.6,1.9c0-0.4,0-0.8,0.1-1.1s0-0.5,0-0.6h2.3c0,0.5-0.1,1.4-0.1,2.5V80.1z M525.9,77.1c0-1-0.2-1.9-0.8-2.7
			c-0.5-0.6-1.2-1-2-1c-0.5,0-1,0.2-1.4,0.5c-0.5,0.3-0.8,0.8-1,1.3c-0.2,0.6-0.4,1.3-0.3,2c0,0.7,0.1,1.3,0.3,1.9
			c0.2,0.5,0.5,1,1,1.3c0.4,0.3,0.9,0.5,1.4,0.5c0.8,0,1.5-0.4,2-1C525.7,79,526,78,525.9,77.1L525.9,77.1z"/>
		<path d="M539.2,82.6c-0.1-0.5-0.1-1.1-0.1-1.6c-0.4,0.6-0.9,1.1-1.5,1.4c-0.7,0.3-1.4,0.5-2.1,0.5c-0.8,0-1.7-0.3-2.4-0.7
			c-0.7-0.5-1.3-1.2-1.7-2c-0.4-0.9-0.6-2-0.6-3s0.2-2.1,0.6-3c0.4-0.8,1-1.5,1.7-2s1.5-0.7,2.4-0.7c0.7,0,1.3,0.1,1.9,0.4
			c0.6,0.2,1.1,0.6,1.5,1V67h2.6v13c0,1,0,1.9,0.1,2.5L539.2,82.6z M538.9,77.1c0.1-1-0.2-1.9-0.8-2.7c-0.5-0.7-1.2-1-2-1
			c-0.5,0-1,0.2-1.4,0.5s-0.8,0.8-1,1.3c-0.2,0.6-0.4,1.3-0.3,2c0,0.7,0.1,1.3,0.3,1.9c0.2,0.5,0.6,1,1,1.3s0.9,0.5,1.4,0.5
			c0.8,0,1.5-0.3,2-1C538.6,79,538.9,78,538.9,77.1z"/>
		<path d="M543.8,74.6c0-0.6,0.2-1.2,0.5-1.7c0.4-0.5,0.9-0.9,1.5-1.2c0.7-0.3,1.4-0.4,2.2-0.4c1,0,1.9,0.2,2.8,0.6
			c0.7,0.4,1.2,1,1.5,1.8l-2,0.9c-0.3-0.9-1.2-1.5-2.2-1.4c-0.4,0-0.9,0.1-1.3,0.3c-0.3,0.2-0.5,0.5-0.5,0.9s0.2,0.7,0.5,0.9
			c0.6,0.3,1.1,0.4,1.8,0.5c1.1,0.1,2.1,0.5,2.9,1.1c0.6,0.6,1,1.5,1,2.3c0,0.7-0.2,1.3-0.6,1.9c-0.4,0.6-0.9,1-1.6,1.2
			c-0.7,0.3-1.5,0.5-2.3,0.4c-1.1,0-2.1-0.2-3.1-0.7c-0.8-0.4-1.4-1.2-1.6-2l2-0.9c0.2,0.5,0.5,0.9,0.9,1.2c0.5,0.3,1.1,0.5,1.7,0.4
			c0.5,0,1-0.1,1.5-0.3c0.3-0.2,0.5-0.6,0.5-1s-0.2-0.8-0.5-1.1c-0.6-0.3-1.3-0.5-1.9-0.5c-1-0.1-2-0.5-2.8-1.1
			C544.1,76.2,543.7,75.4,543.8,74.6z"/>
		<path d="M342.4,75.1c0,1.4-0.3,2.7-0.8,3.9c-0.5,1.1-1.3,2-2.3,2.6c-1.1,0.6-2.3,0.9-3.5,0.9H330V67.7h5.7c1.2,0,2.5,0.3,3.5,0.9
			s1.8,1.5,2.3,2.6C342.1,72.4,342.4,73.8,342.4,75.1z M339.6,75.1c0.1-1.3-0.3-2.6-1.1-3.7c-0.8-0.9-2-1.4-3.2-1.4h-2.4v10.2h2.4
			c1.2,0.1,2.4-0.5,3.2-1.4C339.2,77.8,339.6,76.5,339.6,75.1z"/>
		<path d="M354.4,77.8h-7.5c0,0.8,0.3,1.6,0.9,2.2c0.5,0.5,1.2,0.8,2,0.8c0.5,0,1-0.1,1.5-0.4c0.4-0.3,0.7-0.7,0.9-1.2l2.2,1
			c-0.7,1.7-2.2,2.6-4.5,2.6c-1,0-2-0.2-2.9-0.7c-0.8-0.5-1.5-1.2-1.9-2c-0.5-0.9-0.7-2-0.7-3s0.2-2.1,0.7-3c0.4-0.8,1.1-1.5,1.9-2
			s1.7-0.8,2.6-0.7c1,0,1.9,0.2,2.7,0.7c0.8,0.5,1.4,1.2,1.8,2c0.4,1,0.6,2,0.6,3.1C354.4,77.3,354.4,77.5,354.4,77.8z M346.9,75.9
			h4.9c0-0.7-0.3-1.4-0.8-1.9c-0.9-0.9-2.4-0.9-3.3,0C347.3,74.5,347,75.2,346.9,75.9z"/>
		<path d="M356.3,74.6c0-0.6,0.2-1.2,0.5-1.7c0.4-0.5,0.9-0.9,1.5-1.2c0.7-0.3,1.4-0.4,2.2-0.4c1,0,1.9,0.2,2.8,0.6
			c0.7,0.4,1.2,1,1.5,1.8l-2,0.9c-0.3-0.9-1.2-1.5-2.2-1.4c-0.4,0-0.9,0.1-1.2,0.3c-0.3,0.2-0.5,0.5-0.5,0.9s0.2,0.7,0.5,0.9
			c0.6,0.3,1.1,0.4,1.8,0.5c1.1,0.1,2.1,0.5,2.9,1.1c0.7,0.6,1,1.5,1,2.3c0,0.7-0.2,1.3-0.6,1.9s-0.9,1-1.6,1.2
			c-0.7,0.3-1.5,0.5-2.3,0.4c-1.1,0-2.1-0.2-3.1-0.7c-0.8-0.4-1.3-1.2-1.6-2l2-0.9c0.2,0.5,0.5,0.9,0.9,1.2c0.5,0.3,1.1,0.5,1.6,0.4
			c0.5,0,1-0.1,1.5-0.3c0.3-0.2,0.5-0.6,0.5-1c0-0.5-0.2-0.9-0.6-1.1c-0.6-0.3-1.3-0.5-1.9-0.5c-1-0.1-2-0.5-2.8-1.1
			C356.6,76.2,356.3,75.4,356.3,74.6z"/>
		<path d="M366.7,74.6c0-0.6,0.2-1.2,0.5-1.7c0.4-0.5,0.9-0.9,1.5-1.2c0.7-0.3,1.4-0.4,2.2-0.4c1,0,1.9,0.2,2.8,0.6
			c0.7,0.4,1.2,1,1.5,1.8l-2,0.9c-0.3-0.9-1.2-1.5-2.2-1.4c-0.4,0-0.9,0.1-1.2,0.3c-0.3,0.2-0.5,0.5-0.5,0.9s0.2,0.7,0.5,0.9
			c0.6,0.3,1.1,0.4,1.8,0.5c1.1,0.1,2.1,0.5,2.9,1.1c0.6,0.6,1,1.5,1,2.3c0,0.7-0.2,1.3-0.6,1.9s-0.9,1-1.6,1.2
			c-0.7,0.3-1.5,0.5-2.3,0.4c-1.1,0-2.1-0.2-3.1-0.7c-0.8-0.4-1.4-1.1-1.6-2l2-0.9c0.2,0.5,0.5,0.9,0.9,1.2c0.5,0.3,1.1,0.5,1.6,0.4
			c0.5,0,1-0.1,1.5-0.3c0.3-0.2,0.5-0.6,0.5-1s-0.2-0.8-0.5-1.1c-0.6-0.3-1.3-0.5-1.9-0.5c-1-0.1-2-0.5-2.8-1.1
			C367,76.2,366.7,75.4,366.7,74.6z"/>
		<path d="M387.2,77.8h-7.5c0,0.8,0.3,1.6,0.9,2.2c0.5,0.5,1.3,0.8,2,0.8c0.5,0,1-0.1,1.5-0.4c0.4-0.3,0.7-0.7,0.9-1.2l2.2,1
			c-0.8,1.7-2.3,2.6-4.5,2.6c-1,0-2-0.2-2.9-0.7c-0.8-0.5-1.5-1.2-1.9-2c-0.5-0.9-0.7-2-0.7-3s0.2-2.1,0.7-3c0.4-0.8,1.1-1.5,1.8-2
			c0.8-0.5,1.7-0.8,2.6-0.7c0.9,0,1.9,0.2,2.7,0.7c0.8,0.5,1.4,1.2,1.8,2c0.4,1,0.6,2,0.6,3.1C387.2,77.3,387.2,77.6,387.2,77.8z
			 M379.7,75.9h4.9c0-0.7-0.3-1.4-0.8-1.9c-0.4-0.4-1-0.7-1.7-0.7c-0.6,0-1.2,0.2-1.6,0.7C380.1,74.6,379.8,75.2,379.7,75.9
			L379.7,75.9z"/>
		<path d="M395.5,71.4v2.3c-0.3,0-0.5-0.1-0.8-0.1c-0.7,0-1.4,0.2-1.9,0.8c-0.5,0.6-0.8,1.4-0.7,2.2v6h-2.6v-8.5c0-1,0-1.9-0.1-2.5
			h2.3c0.1,0.6,0.1,1.2,0.1,1.8c0.3-0.6,0.7-1.1,1.3-1.5c0.5-0.3,1.2-0.5,1.8-0.5C395,71.2,395.3,71.3,395.5,71.4z"/>
		<path d="M400.8,73.6v5.6c-0.1,0.7,0.4,1.3,1.1,1.5c0.1,0,0.2,0,0.4,0c0.4,0,0.7,0,1.1-0.2v2c-0.5,0.2-1.1,0.3-1.7,0.3
			c-0.9,0-1.8-0.3-2.5-0.9c-0.6-0.7-1-1.6-0.9-2.6v-5.7h-1.5v-2.1h1.5v-2.6h2.6v2.6h2.5v2.1C403.4,73.6,400.8,73.6,400.8,73.6z"/>
		<path d="M405.1,74.6c0-0.6,0.2-1.2,0.5-1.7c0.4-0.5,0.9-0.9,1.5-1.2c0.7-0.3,1.4-0.4,2.2-0.4c1,0,1.9,0.2,2.8,0.6
			c0.7,0.4,1.2,1,1.5,1.8l-2,0.9c-0.3-0.9-1.2-1.5-2.2-1.4c-0.4,0-0.9,0.1-1.3,0.3c-0.3,0.2-0.5,0.5-0.5,0.9s0.2,0.7,0.5,0.9
			c0.6,0.3,1.2,0.4,1.8,0.4c1.1,0.1,2.1,0.5,2.9,1.1c0.6,0.6,1,1.5,1,2.3c0,0.7-0.2,1.3-0.6,1.9s-0.9,1-1.6,1.2
			c-0.7,0.3-1.5,0.5-2.3,0.4c-1.1,0-2.1-0.2-3.1-0.7c-0.8-0.4-1.4-1.2-1.6-2l2-0.9c0.2,0.5,0.5,0.9,0.9,1.2c0.5,0.3,1.1,0.5,1.6,0.4
			c0.5,0,1-0.1,1.5-0.3c0.3-0.2,0.5-0.6,0.5-1s-0.2-0.8-0.5-1.1c-0.6-0.3-1.3-0.5-1.9-0.5c-1-0.1-2-0.4-2.8-1.1
			C405.4,76.2,405.1,75.4,405.1,74.6z"/>
		<path d="M645.6,71.8c0-1.6,0.9-3.1,2.4-3.8c0.9-0.4,1.8-0.6,2.8-0.5c1.2,0,2.3,0.2,3.3,0.8c0.9,0.5,1.5,1.4,1.8,2.3l-2.2,1
			c-0.2-0.5-0.5-1-1-1.3s-1.1-0.5-1.8-0.5c-0.6,0-1.3,0.1-1.8,0.5c-0.4,0.3-0.6,0.8-0.6,1.3s0.2,1,0.6,1.3c0.7,0.4,1.4,0.6,2.2,0.7
			c1.4,0.1,2.6,0.7,3.7,1.6c1.3,1.5,1.5,3.7,0.5,5.4c-0.5,0.7-1.2,1.3-1.9,1.6c-0.9,0.4-1.9,0.6-2.8,0.6c-1.3,0-2.5-0.3-3.7-0.9
			c-1-0.6-1.6-1.5-2-2.6l2.3-1.1c0.2,0.6,0.6,1.2,1.2,1.6c0.6,0.4,1.4,0.6,2.1,0.5c0.7,0.1,1.4-0.1,2-0.5c0.5-0.4,0.7-0.9,0.7-1.5
			s-0.2-1.1-0.7-1.5c-0.8-0.5-1.6-0.7-2.5-0.9c-1.3-0.2-2.4-0.7-3.4-1.5C645.9,73.8,645.5,72.8,645.6,71.8z"/>
		<path d="M663,71.3c1,0,1.9,0.2,2.8,0.7c0.8,0.5,1.5,1.2,1.9,2c0.5,0.9,0.7,2,0.7,3s-0.2,2.1-0.7,3c-0.4,0.8-1.1,1.5-1.9,2
			c-1.7,1-3.8,1-5.5,0c-0.8-0.5-1.5-1.2-1.9-2c-0.5-0.9-0.7-2-0.7-3s0.2-2.1,0.7-3c0.4-0.8,1.1-1.5,1.9-2
			C661.1,71.5,662,71.3,663,71.3z M663,73.3c-0.8,0-1.5,0.3-2,1c-1,1.7-1,3.7,0,5.4c0.8,1.1,2.3,1.3,3.4,0.6
			c0.2-0.2,0.4-0.4,0.6-0.6c1-1.7,1-3.7,0-5.4C664.5,73.7,663.8,73.3,663,73.3z"/>
		<path d="M673.9,70.5v1h2.4v2.1h-2.4v9h-2.6v-9h-1.5v-2.1h1.5v-1.1c-0.1-1,0.3-1.9,0.9-2.7c0.7-0.7,1.6-1,2.6-0.9
			c0.4,0,0.8,0,1.1,0.1s0.6,0.2,0.8,0.3V69c-0.4-0.1-0.8-0.1-1.2-0.1c-0.8-0.1-1.5,0.4-1.6,1.2C673.9,70.2,673.9,70.4,673.9,70.5z"
			/>
		<path d="M681.7,73.6v5.6c-0.1,0.7,0.4,1.3,1.1,1.5c0.1,0,0.2,0,0.4,0c0.4,0,0.7,0,1.1-0.2v2c-0.5,0.2-1.1,0.3-1.7,0.3
			c-0.9,0-1.8-0.3-2.5-0.9c-0.6-0.7-1-1.6-0.9-2.6v-5.7h-1.5v-2.1h1.5v-2.6h2.6v2.6h2.5v2.1C684.3,73.6,681.7,73.6,681.7,73.6z"/>
		<path d="M704,75.1c0,1.4-0.2,2.7-0.8,3.9c-0.5,1.1-1.3,2-2.3,2.6c-1.1,0.6-2.3,0.9-3.5,0.9h-5.7V67.7h5.7c1.2,0,2.5,0.3,3.5,0.9
			s1.8,1.5,2.3,2.6C703.7,72.4,704,73.8,704,75.1z M701.2,75.1c0.1-1.3-0.3-2.7-1.2-3.7c-0.8-0.9-2-1.4-3.2-1.4h-2.4v10.2h2.4
			c1.2,0.1,2.4-0.4,3.2-1.4C700.8,77.8,701.3,76.5,701.2,75.1z"/>
		<path d="M712.4,71.4v2.3c-0.3,0-0.5-0.1-0.8-0.1c-0.7,0-1.4,0.2-1.9,0.8c-0.5,0.6-0.8,1.4-0.7,2.2v6h-2.6v-8.5c0-1,0-1.9-0.1-2.5
			h2.3c0.1,0.6,0.1,1.2,0.1,1.8c0.3-0.6,0.8-1.1,1.3-1.5c0.5-0.3,1.2-0.5,1.8-0.5C712,71.3,712.2,71.3,712.4,71.4z"/>
		<path d="M715.8,67.3c0.9-0.1,1.6,0.6,1.7,1.4c0.1,0.9-0.6,1.6-1.4,1.7c-0.1,0-0.2,0-0.2,0c-0.4,0-0.8-0.1-1.1-0.4
			c-0.6-0.6-0.6-1.6,0-2.2C714.9,67.4,715.3,67.2,715.8,67.3z M717.1,71.5v11.1h-2.6V71.5H717.1z"/>
		<path d="M729.8,75.3v7.3h-2.6v-6.8c0-1.5-0.7-2.3-2.1-2.3c-0.7,0-1.4,0.3-1.9,0.8c-0.5,0.6-0.7,1.4-0.7,2.2v6.2h-2.6v-8.5
			c0-1,0-1.9-0.1-2.5h2.3c0.1,0.5,0.1,1.1,0.1,1.7c0.8-1.3,2.3-2,3.8-1.9c1-0.1,2,0.3,2.8,1.1C729.5,73.2,729.9,74.2,729.8,75.3z"/>
		<path d="M738.9,82.6l-4-5.4v5.4h-2.6V67h2.6v9.4l3.8-4.9h3.2l-4.3,5.3l4.6,5.8L738.9,82.6z"/>
		<path d="M743.6,74.6c0-0.6,0.2-1.2,0.5-1.7c0.4-0.5,0.9-0.9,1.5-1.2c0.7-0.3,1.4-0.4,2.2-0.4c1,0,1.9,0.2,2.8,0.6
			c0.7,0.4,1.2,1,1.5,1.8l-2,0.9c-0.3-0.9-1.2-1.5-2.2-1.4c-0.4,0-0.9,0.1-1.3,0.3c-0.3,0.2-0.5,0.5-0.5,0.9s0.2,0.7,0.5,0.9
			c0.6,0.3,1.1,0.4,1.8,0.5c1.1,0.1,2.1,0.5,2.9,1.1c0.7,0.6,1,1.5,1,2.3c0,0.7-0.2,1.3-0.6,1.9c-0.4,0.6-0.9,1-1.6,1.2
			c-0.7,0.3-1.5,0.4-2.3,0.4c-1.1,0-2.1-0.2-3.1-0.7c-0.8-0.4-1.4-1.2-1.6-2l2-0.9c0.2,0.5,0.5,0.9,0.9,1.2c0.5,0.3,1.1,0.5,1.7,0.4
			c0.5,0,1-0.1,1.5-0.3c0.3-0.2,0.5-0.6,0.5-1s-0.2-0.8-0.5-1.1c-0.6-0.3-1.3-0.5-1.9-0.5c-1-0.1-2-0.5-2.8-1.1
			C743.9,76.2,743.6,75.4,743.6,74.6z"/>
		<path d="M14.2,71.8c0-0.8,0.2-1.6,0.6-2.2c0.4-0.7,1.1-1.2,1.8-1.5c0.9-0.4,1.8-0.6,2.8-0.5c1.2,0,2.3,0.2,3.3,0.8
			c0.9,0.5,1.5,1.4,1.8,2.3l-2.2,1c-0.2-0.5-0.5-1-1-1.3s-1.1-0.5-1.8-0.5c-0.6,0-1.3,0.1-1.8,0.5c-0.4,0.3-0.6,0.8-0.6,1.3
			s0.2,1,0.6,1.3c0.7,0.4,1.4,0.6,2.2,0.7c1.4,0.1,2.6,0.7,3.7,1.6c1.3,1.5,1.5,3.7,0.5,5.4c-0.5,0.7-1.2,1.3-1.9,1.6
			c-0.9,0.4-1.9,0.6-2.8,0.6c-1.3,0-2.5-0.3-3.7-0.9c-0.9-0.6-1.6-1.5-1.9-2.5l2.3-1.1c0.2,0.6,0.6,1.2,1.1,1.6
			c0.6,0.4,1.4,0.6,2.1,0.5c0.7,0.1,1.4-0.1,2-0.5c0.5-0.4,0.7-0.9,0.7-1.5s-0.2-1.1-0.7-1.5c-0.8-0.5-1.6-0.7-2.5-0.9
			c-1.3-0.2-2.4-0.7-3.4-1.5C14.5,73.8,14.1,72.8,14.2,71.8z"/>
		<path d="M36.7,80.1c0,1.2,0,2,0.1,2.5h-2.3c0,0,0-0.2,0-0.5c0-0.4-0.1-0.7-0.1-1.1c-0.4,0.6-0.9,1.1-1.5,1.4
			c-0.7,0.3-1.4,0.5-2.1,0.5c-0.8,0-1.7-0.3-2.4-0.7c-0.7-0.5-1.3-1.2-1.7-2c-0.4-0.9-0.6-2-0.6-3s0.2-2.1,0.6-3
			c0.4-0.8,1-1.5,1.7-2s1.5-0.7,2.4-0.7c1.5,0,2.8,0.7,3.6,1.9c0-0.4,0-0.7,0.1-1.1c0-0.3,0-0.5,0-0.6h2.3c0,0.5-0.1,1.4-0.1,2.5
			V80.1z M34.1,77.1c0.1-1-0.2-1.9-0.8-2.7c-0.5-0.7-1.2-1-2-1c-0.5,0-1,0.2-1.4,0.5s-0.8,0.8-1,1.3c-0.2,0.6-0.4,1.3-0.3,2
			c0,0.6,0.1,1.3,0.3,1.9c0.2,0.5,0.6,1,1,1.3s0.9,0.5,1.4,0.5c0.8,0,1.5-0.3,2-1C33.9,79,34.1,78,34.1,77.1L34.1,77.1z"/>
		<path d="M49.3,75.3v7.3h-2.6v-6.8c0-1.5-0.7-2.3-2.1-2.3c-0.7,0-1.4,0.2-1.9,0.8c-0.5,0.6-0.7,1.4-0.7,2.2v6.2h-2.6v-8.5
			c0-1,0-1.9-0.1-2.5h2.3c0.1,0.5,0.1,1.1,0.1,1.7c0.8-1.3,2.3-2,3.8-1.9c1-0.1,2,0.3,2.8,1.1C49,73.2,49.3,74.2,49.3,75.3z"/>
		<path d="M59.9,82.6c-0.1-0.5-0.1-1.1-0.1-1.6c-0.4,0.6-0.9,1.1-1.5,1.4c-0.7,0.3-1.4,0.5-2.1,0.5c-0.8,0-1.7-0.3-2.4-0.7
			c-0.7-0.5-1.3-1.2-1.7-2c-0.4-0.9-0.6-2-0.6-3s0.2-2.1,0.6-3c0.4-0.8,1-1.5,1.7-2s1.5-0.7,2.4-0.7c0.7,0,1.3,0.1,1.9,0.4
			c0.6,0.2,1.1,0.6,1.5,1V67h2.6v13c0,1,0,1.9,0.1,2.5L59.9,82.6z M59.5,77.1c0-1-0.2-1.9-0.8-2.7c-0.8-1.1-2.3-1.3-3.4-0.6l0,0
			c-0.5,0.3-0.8,0.8-1,1.3c-0.2,0.6-0.4,1.3-0.3,2c0,0.7,0.1,1.3,0.3,1.9c0.2,0.5,0.5,1,1,1.3c1.1,0.8,2.6,0.5,3.4-0.6l0,0
			C59.3,79,59.6,78,59.5,77.1z"/>
		<path d="M80.4,71.5l-2.9,11.1h-3l-2.2-8.7L70,82.6h-3l-3-11.1h2.6l1.8,8.7l2.2-8.7h3.1l2.2,8.7l1.8-8.7H80.4z"/>
		<path d="M83.6,67.3c0.4,0,0.8,0.1,1.1,0.4c0.6,0.6,0.6,1.6,0,2.2c-0.3,0.3-0.7,0.4-1.1,0.4s-0.8-0.1-1.1-0.4
			c-0.6-0.6-0.6-1.6,0-2.2C82.8,67.4,83.2,67.2,83.6,67.3z M84.9,71.5v11.1h-2.6V71.5H84.9z"/>
		<path d="M92.6,71.3c1,0,2,0.2,2.8,0.7c0.7,0.4,1.2,1.1,1.5,1.9l-2.2,1c-0.1-0.4-0.4-0.8-0.7-1.1c-0.4-0.3-0.9-0.4-1.3-0.4
			c-0.8,0-1.5,0.4-2,1c-1,1.6-1,3.6,0,5.3c0.5,0.6,1.2,1,2,1c0.5,0,1-0.1,1.3-0.4s0.6-0.7,0.7-1.1l2.2,1c-0.2,0.8-0.8,1.5-1.4,1.9
			c-0.9,0.5-1.8,0.8-2.8,0.7c-1,0-1.9-0.2-2.7-0.7c-0.8-0.5-1.5-1.2-1.9-2c-0.5-0.9-0.7-2-0.7-3s0.2-2.1,0.7-3
			c0.4-0.8,1.1-1.5,1.9-2C90.6,71.6,91.6,71.3,92.6,71.3z"/>
		<path d="M108.8,75.3v7.3h-2.6v-6.8c0-1.5-0.7-2.3-2.1-2.3c-0.7,0-1.4,0.2-1.9,0.8c-0.5,0.6-0.7,1.4-0.7,2.2v6.2h-2.6V67h2.6v5.8
			c0.9-1.1,2.2-1.6,3.6-1.6c1-0.1,2,0.3,2.8,1.1C108.5,73.1,108.8,74.2,108.8,75.3z"/>
		<path d="M121.1,77.8h-7.6c0,0.8,0.3,1.6,0.9,2.2c0.5,0.5,1.3,0.8,2,0.8c0.5,0,1-0.1,1.5-0.4c0.4-0.3,0.7-0.7,0.9-1.2l2.2,1
			c-0.8,1.7-2.3,2.6-4.5,2.6c-1,0-2-0.2-2.9-0.7c-0.8-0.5-1.5-1.2-1.9-2c-0.5-0.9-0.7-2-0.7-3s0.2-2.1,0.7-3c0.4-0.8,1.1-1.5,1.8-2
			c0.8-0.5,1.7-0.7,2.6-0.7s1.9,0.2,2.7,0.7c0.8,0.5,1.4,1.2,1.8,2c0.4,1,0.6,2,0.6,3.1C121.1,77.3,121.1,77.5,121.1,77.8z
			 M113.6,75.9h4.9c0-0.7-0.3-1.4-0.8-1.9c-0.9-0.9-2.4-0.9-3.3,0C113.9,74.5,113.6,75.2,113.6,75.9L113.6,75.9z"/>
		<path d="M123,74.6c0-0.6,0.2-1.2,0.5-1.7c0.4-0.5,0.9-0.9,1.5-1.2c0.7-0.3,1.4-0.4,2.2-0.4c1,0,1.9,0.2,2.8,0.6
			c0.7,0.4,1.2,1,1.5,1.8l-2,0.9c-0.3-0.9-1.2-1.5-2.2-1.4c-0.4,0-0.9,0.1-1.2,0.3c-0.3,0.2-0.5,0.5-0.5,0.9s0.2,0.7,0.5,0.9
			c0.5,0.3,1.1,0.4,1.8,0.5c1.1,0.1,2.1,0.5,2.9,1.1c0.6,0.6,1,1.5,0.9,2.3c0,0.7-0.2,1.3-0.6,1.9c-0.4,0.6-0.9,1-1.6,1.2
			c-0.7,0.3-1.5,0.5-2.3,0.4c-1.1,0-2.1-0.2-3.1-0.7c-0.8-0.4-1.4-1.2-1.6-2l2-0.9c0.2,0.5,0.5,0.9,0.9,1.2c0.5,0.3,1.1,0.5,1.7,0.4
			c0.5,0,1-0.1,1.5-0.3c0.3-0.2,0.5-0.6,0.5-1s-0.2-0.8-0.5-1.1c-0.6-0.3-1.3-0.5-1.9-0.5c-1-0.1-2-0.5-2.7-1.1
			C123.3,76.2,122.9,75.4,123,74.6z"/>
		<path class="st5" d="M36.9,108.4L36.9,108.4v23.2H13.6l0,0c0,12.8,10.4,23.3,23.2,23.3s23.3-10.4,23.3-23.2S49.7,108.3,36.9,108.4
			C36.9,108.3,36.9,108.3,36.9,108.4L36.9,108.4z"/>
		<path class="st6" d="M36.8,131.6v-23.2c-12.8,0-23.2,10.4-23.2,23.2H36.8z"/>
		<rect x="81.9" y="123.6" class="st5" width="26.7" height="26.7"/>
		<rect x="974.9" y="80.4" class="st7" width="26.7" height="26.7"/>
		<rect x="1199.1" y="126.4" class="st0" width="26.7" height="26.7"/>
		<rect x="1389.4" y="80.4" class="st8" width="26.7" height="26.7"/>
		<rect x="974.9" y="126.4" class="st9" width="26.7" height="26.7"/>
		<rect x="1198.4" y="80.4" class="st10" width="26.7" height="26.7"/>
		<rect x="329.1" y="123.6" class="st6" width="26.7" height="26.7"/>
		<path d="M374.7,143.3c1.5,0.1,2.9-0.9,3.2-2.4l2.3,1.1c-0.3,1.1-1,2-1.9,2.6c-1,0.7-2.3,1-3.5,1c-1.3,0-2.5-0.3-3.6-1
			s-1.9-1.6-2.4-2.7c-1.1-2.6-1.1-5.5,0-8.1c1.1-2.3,3.4-3.8,6-3.7c1.2,0,2.5,0.3,3.5,0.9c0.9,0.6,1.6,1.5,1.9,2.6l-2.3,1.1
			c-0.3-1.5-1.7-2.5-3.2-2.4c-0.7,0-1.5,0.2-2.1,0.7s-1.1,1.1-1.4,1.9c-0.7,1.8-0.7,3.8,0,5.6c0.3,0.8,0.8,1.4,1.4,1.9
			C373.3,143,374,143.3,374.7,143.3z"/>
		<path d="M392.4,142.8c0,1.2,0,2,0.1,2.5h-2.4c0-0.1,0-0.2,0-0.5s0-0.7-0.1-1.1c-0.4,0.6-0.9,1.1-1.5,1.4c-0.6,0.3-1.4,0.5-2.1,0.5
			c-0.8,0-1.7-0.2-2.4-0.7c-0.7-0.5-1.3-1.2-1.7-2c-0.8-1.9-0.8-4.1,0-6c0.4-0.8,1-1.5,1.7-2.1c0.7-0.5,1.5-0.7,2.4-0.7
			c1.5,0,2.8,0.7,3.6,1.9c0-0.4,0-0.8,0.1-1.1s0-0.5,0-0.5h2.4c0,0.5-0.1,1.4-0.1,2.5V142.8z M389.8,139.8c0-1-0.2-1.9-0.8-2.7
			c-0.8-1.1-2.3-1.3-3.4-0.6l0,0c-0.4,0.3-0.8,0.8-1,1.3c-0.2,0.6-0.4,1.3-0.3,2c0,0.7,0.1,1.3,0.3,1.9c0.2,0.5,0.5,1,1,1.3
			c0.4,0.3,0.9,0.5,1.4,0.5c0.8,0,1.5-0.4,2-1C389.6,141.7,389.9,140.8,389.8,139.8z"/>
		<path d="M397.7,129.8v15.6h-2.6v-15.6H397.7z"/>
		<path d="M405.4,134c1,0,1.9,0.2,2.8,0.7c0.8,0.5,1.5,1.2,1.9,2c0.9,1.9,0.9,4.1,0,6c-0.4,0.8-1.1,1.5-1.9,2c-1.7,1-3.8,1-5.5,0
			c-0.8-0.5-1.5-1.2-1.9-2c-0.9-1.9-0.9-4.1,0-6c0.4-0.8,1.1-1.5,1.9-2C403.5,134.2,404.4,134,405.4,134z M405.4,136.1
			c-0.8,0-1.5,0.4-2,1c-1,1.7-1,3.7,0,5.4c0.5,0.7,1.2,1,2,1s1.5-0.3,2-1c1-1.7,1-3.7,0-5.4C406.9,136.4,406.2,136,405.4,136.1z"/>
		<path d="M419,134.1v2.3c-0.3,0-0.5-0.1-0.8-0.1c-0.7,0-1.5,0.2-2,0.8s-0.8,1.4-0.7,2.2v6h-2.6v-8.5c0-1,0-1.9-0.1-2.5h2.3
			c0.1,0.6,0.1,1.2,0.1,1.8c0.3-0.6,0.7-1.1,1.3-1.5c0.5-0.3,1.2-0.5,1.8-0.5C418.5,134,418.8,134,419,134.1z"/>
		<path d="M422.4,130c0.4,0,0.8,0.1,1.1,0.4c0.3,0.3,0.4,0.7,0.4,1.1c0,0.4-0.1,0.8-0.4,1.1c-0.6,0.6-1.6,0.6-2.2,0
			c-0.3-0.3-0.4-0.7-0.4-1.1c0-0.4,0.1-0.8,0.4-1.1C421.5,130.1,422,130,422.4,130z M423.7,134.3v11.1h-2.6v-11.1H423.7z"/>
		<path d="M436.1,140.5h-7.5c0,0.8,0.3,1.6,0.9,2.2c0.5,0.5,1.2,0.8,2,0.8c0.5,0,1-0.1,1.5-0.4c0.4-0.3,0.7-0.7,0.9-1.2l2.2,1
			c-0.7,1.7-2.2,2.6-4.5,2.6c-1,0-2-0.2-2.9-0.7c-0.8-0.5-1.5-1.2-1.9-2c-0.5-0.9-0.7-2-0.7-3s0.2-2.1,0.7-3
			c0.4-0.8,1.1-1.5,1.9-2.1c0.8-0.5,1.7-0.8,2.6-0.7c1,0,1.9,0.2,2.7,0.7c0.8,0.5,1.4,1.2,1.8,2c0.4,1,0.6,2,0.6,3.1
			C436.2,140.1,436.2,140.3,436.1,140.5z M428.7,138.6h4.9c0-0.7-0.3-1.4-0.8-1.9c-0.9-0.9-2.4-0.9-3.3,0
			C429,137.3,428.7,137.9,428.7,138.6z"/>
		<path d="M438.1,137.3c0-0.6,0.2-1.2,0.5-1.7c0.4-0.5,0.9-0.9,1.5-1.2c0.7-0.3,1.4-0.4,2.2-0.4c1,0,1.9,0.2,2.8,0.6
			c0.7,0.4,1.2,1,1.5,1.8l-2,0.9c-0.3-0.9-1.2-1.5-2.2-1.4c-0.4,0-0.9,0.1-1.3,0.3c-0.3,0.2-0.5,0.5-0.5,0.9s0.2,0.7,0.5,0.9
			c0.6,0.3,1.1,0.4,1.8,0.5c1.1,0.1,2.1,0.5,2.9,1.1c0.6,0.6,1,1.5,1,2.3c0,0.7-0.2,1.3-0.6,1.9c-0.4,0.5-0.9,1-1.6,1.2
			c-0.7,0.3-1.5,0.5-2.3,0.4c-1.1,0-2.1-0.2-3.1-0.7c-0.8-0.4-1.4-1.2-1.6-2l2-0.9c0.2,0.5,0.5,0.9,0.9,1.2c0.5,0.3,1.1,0.4,1.6,0.4
			s1-0.1,1.5-0.4c0.3-0.2,0.5-0.6,0.5-1s-0.2-0.8-0.5-1.1c-0.6-0.3-1.3-0.5-1.9-0.5c-1-0.1-2-0.5-2.8-1.1
			C438.4,139,438,138.2,438.1,137.3z"/>
		<path d="M456.9,132.8v3.8h5.7v2.4h-5.7v6.4h-2.8v-14.9h9v2.4L456.9,132.8L456.9,132.8z"/>
		<path d="M471.4,134.1v2.3c-0.3,0-0.5-0.1-0.8-0.1c-0.7,0-1.4,0.2-1.9,0.8s-0.8,1.4-0.7,2.2v6h-2.6v-8.5c0-1,0-1.9-0.1-2.5h2.3
			c0.1,0.6,0.1,1.2,0.1,1.8c0.3-0.6,0.7-1.1,1.3-1.5c0.5-0.3,1.2-0.5,1.8-0.5C471,134,471.2,134,471.4,134.1z"/>
		<path d="M478.3,134c1,0,1.9,0.2,2.7,0.7c0.8,0.5,1.5,1.2,1.9,2c0.9,1.9,0.9,4.1,0,6c-0.4,0.8-1.1,1.5-1.9,2s-1.8,0.7-2.7,0.7
			c-1,0-1.9-0.2-2.8-0.7c-0.8-0.5-1.5-1.2-1.9-2c-0.9-1.9-0.9-4.1,0-6c0.4-0.8,1.1-1.5,1.9-2S477.3,134,478.3,134z M478.3,136.1
			c-0.8,0-1.5,0.4-2,1c-1,1.7-1,3.7,0,5.4c0.8,1.1,2.3,1.3,3.4,0.6c0.2-0.2,0.4-0.4,0.6-0.6c1-1.7,1-3.7,0-5.4
			C479.8,136.4,479,136.1,478.3,136.1z"/>
		<path d="M501.7,137.7v7.6h-2.6v-7.2c0-1.3-0.6-2-1.8-2c-0.6,0-1.2,0.2-1.6,0.7s-0.6,1.2-0.6,1.9v6.6h-2.6v-7.2c0-1.3-0.6-2-1.8-2
			c-0.6,0-1.2,0.2-1.6,0.7s-0.6,1.2-0.6,1.9v6.6h-2.6v-8.5c0-1,0-1.9-0.1-2.5h2.3c0,0.3,0.1,0.8,0.1,1.5c0.7-1.2,2.1-1.9,3.4-1.8
			c0.7,0,1.3,0.1,1.9,0.5c0.5,0.3,0.9,0.8,1.2,1.3c0.8-1.2,2.2-1.9,3.6-1.8c1,0,1.9,0.3,2.5,1C501.5,135.8,501.8,136.7,501.7,137.7z
			"/>
		<path d="M512.5,132.8v3.8h5.7v2.4h-5.7v6.4h-2.8v-14.9h9v2.4L512.5,132.8L512.5,132.8z"/>
		<path d="M531.1,142.8c0,1.2,0,2,0.1,2.5h-2.3c0-0.1,0-0.2,0-0.5s0-0.7-0.1-1.1c-0.4,0.6-0.9,1.1-1.5,1.4c-0.6,0.3-1.4,0.5-2.1,0.5
			c-0.8,0-1.7-0.2-2.4-0.7s-1.3-1.2-1.7-2c-0.8-1.9-0.8-4.1,0-6c0.4-0.8,1-1.5,1.7-2.1c0.7-0.5,1.5-0.7,2.4-0.7
			c1.5,0,2.8,0.7,3.6,1.9c0-0.4,0-0.8,0.1-1.1s0-0.5,0-0.5h2.3c0,0.5-0.1,1.4-0.1,2.5V142.8z M528.5,139.8c0-1-0.2-1.9-0.8-2.7
			c-0.8-1.1-2.3-1.3-3.4-0.6l0,0c-0.4,0.3-0.8,0.8-1,1.3c-0.2,0.6-0.4,1.3-0.3,2c0,0.7,0.1,1.3,0.3,1.9c0.2,0.5,0.6,1,1,1.3
			s0.9,0.5,1.4,0.5c0.8,0,1.5-0.4,2-1C528.3,141.7,528.6,140.8,528.5,139.8z"/>
		<path d="M537.1,136.3v5.6c-0.1,0.7,0.4,1.4,1.1,1.5c0.1,0,0.2,0,0.4,0c0.4,0,0.7,0,1.1-0.1v2c-0.5,0.2-1.1,0.3-1.7,0.3
			c-0.9,0.1-1.8-0.3-2.5-0.9c-0.6-0.7-1-1.6-0.9-2.6v-5.7H533v-2.1h1.5v-2.6h2.6v2.6h2.5v2.1L537.1,136.3z"/>
		<path d="M594.3,130.4v14.9h-2.5l-7-10.4v10.4h-2.6v-14.9h3l6.6,9.9v-9.9H594.3z"/>
		<path d="M603.4,145.6c-2.6,0.1-4.9-1.4-6-3.7c-1.2-2.5-1.2-5.5,0-8c0.5-1.1,1.4-2.1,2.4-2.7c1.1-0.7,2.3-1,3.5-1
			c2.6-0.1,4.9,1.4,6,3.7c1.1,2.5,1.1,5.5,0,8c-0.5,1.1-1.4,2.1-2.4,2.7S604.7,145.6,603.4,145.6z M603.4,143.3
			c0.8,0,1.5-0.2,2.1-0.7s1.1-1.2,1.4-1.9c0.7-1.8,0.7-3.8,0-5.6c-0.3-0.8-0.8-1.4-1.4-1.9c-1.2-0.9-2.9-0.9-4.2,0
			c-0.6,0.5-1.1,1.2-1.4,1.9c-0.7,1.8-0.7,3.8,0,5.6c0.3,0.8,0.8,1.4,1.4,1.9S602.7,143.3,603.4,143.3z"/>
		<path d="M633.8,137.7v7.6h-2.6v-7.2c0-1.3-0.6-2-1.8-2c-0.6,0-1.2,0.2-1.6,0.7c-0.4,0.5-0.6,1.2-0.6,1.9v6.6h-2.6v-7.2
			c0-1.3-0.6-2-1.8-2c-0.6,0-1.2,0.2-1.6,0.7c-0.4,0.5-0.6,1.2-0.6,1.9v6.6H618v-8.5c0-1,0-1.9-0.1-2.5h2.3c0.1,0.5,0.1,1,0.1,1.5
			c0.7-1.2,2.1-1.9,3.4-1.8c0.7,0,1.3,0.1,1.9,0.5c0.5,0.3,0.9,0.8,1.2,1.3c0.8-1.2,2.2-1.9,3.6-1.8c1,0,1.9,0.3,2.5,1
			C633.5,135.8,633.8,136.7,633.8,137.7z"/>
		<path d="M646.1,140.5h-7.5c0,0.8,0.3,1.6,0.9,2.2c0.5,0.5,1.2,0.8,2,0.8c0.5,0,1-0.1,1.5-0.4c0.4-0.3,0.7-0.7,0.8-1.2l2.2,1
			c-0.7,1.7-2.2,2.6-4.5,2.6c-1,0-2-0.2-2.9-0.7c-0.8-0.5-1.5-1.2-1.9-2c-0.5-0.9-0.7-2-0.7-3s0.2-2.1,0.7-3
			c0.4-0.8,1.1-1.5,1.8-2.1c0.8-0.5,1.7-0.8,2.6-0.7c0.9,0,1.9,0.2,2.7,0.7s1.4,1.2,1.8,2c0.4,1,0.6,2,0.6,3.1
			C646.1,140.1,646.1,140.3,646.1,140.5z M638.6,138.6h4.9c0-0.7-0.3-1.4-0.8-1.9c-0.9-0.9-2.4-0.9-3.3,0
			C638.9,137.3,638.6,137.9,638.6,138.6z"/>
		<path d="M658.5,142.8c0,1.2,0,2,0.1,2.5h-2.3c0-0.1,0-0.2,0-0.5s0-0.7-0.1-1.1c-0.4,0.6-0.9,1.1-1.5,1.4c-0.6,0.3-1.4,0.5-2.1,0.5
			c-0.8,0-1.7-0.2-2.4-0.7s-1.3-1.2-1.7-2c-0.8-1.9-0.8-4.1,0-6c0.4-0.8,1-1.5,1.7-2.1c0.7-0.5,1.5-0.7,2.4-0.7
			c1.5,0,2.8,0.7,3.6,1.9c0-0.4,0-0.8,0.1-1.1s0-0.5,0-0.5h2.3c0,0.5-0.1,1.4-0.1,2.5V142.8z M655.9,139.8c0-1-0.2-1.9-0.8-2.7
			c-0.8-1.1-2.3-1.3-3.4-0.6l0,0c-0.4,0.3-0.8,0.8-1,1.3c-0.2,0.6-0.4,1.3-0.3,2c0,0.7,0.1,1.3,0.3,1.9c0.2,0.5,0.6,1,1,1.3
			s0.9,0.5,1.4,0.5c0.8,0,1.5-0.4,2-1C655.7,141.7,656,140.8,655.9,139.8z"/>
		<path d="M671.1,138.1v7.3h-2.6v-6.9c0-1.5-0.7-2.3-2.1-2.3c-0.7,0-1.4,0.3-1.9,0.8c-0.5,0.6-0.7,1.4-0.7,2.2v6.2h-2.6v-8.5
			c0-1,0-1.9-0.1-2.5h2.3c0.1,0.5,0.1,1.1,0.1,1.6c0.8-1.3,2.3-2,3.8-1.9c1-0.1,2,0.3,2.8,1.1C670.8,135.9,671.1,137,671.1,138.1z"
			/>
		<path d="M673.4,137.3c0-0.6,0.2-1.2,0.5-1.7c0.4-0.5,0.9-0.9,1.5-1.2c0.7-0.3,1.4-0.4,2.2-0.4c1,0,1.9,0.2,2.8,0.6
			c0.7,0.4,1.2,1,1.5,1.8l-2,0.9c-0.3-0.9-1.2-1.5-2.2-1.4c-0.4,0-0.9,0.1-1.2,0.3s-0.5,0.5-0.5,0.9s0.2,0.7,0.5,0.9
			c0.6,0.3,1.1,0.4,1.8,0.5c1.1,0.1,2.1,0.5,2.9,1.1c0.7,0.6,1,1.5,1,2.3c0,0.7-0.2,1.3-0.6,1.9c-0.4,0.5-0.9,1-1.6,1.2
			c-0.7,0.3-1.5,0.5-2.3,0.4c-1.1,0-2.1-0.2-3.1-0.7c-0.8-0.4-1.3-1.2-1.6-2l2-0.9c0.2,0.5,0.5,0.9,0.9,1.2c0.5,0.3,1.1,0.4,1.7,0.4
			c0.5,0,1-0.1,1.5-0.4c0.3-0.2,0.5-0.6,0.5-1s-0.2-0.8-0.5-1.1c-0.6-0.3-1.3-0.5-1.9-0.5c-1-0.1-2-0.5-2.8-1.1
			C673.7,139,673.3,138.2,673.4,137.3z"/>
		<path d="M701.6,130.4v14.9H699l-7-10.4v10.4h-2.5v-14.9h3l6.6,9.9v-9.9H701.6z"/>
		<path d="M709.2,134c1,0,1.9,0.2,2.8,0.7c0.8,0.5,1.5,1.2,1.9,2c0.9,1.9,0.9,4.1,0,6c-0.4,0.8-1.1,1.5-1.9,2c-1.7,1-3.8,1-5.5,0
			c-0.8-0.5-1.5-1.2-1.9-2c-0.9-1.9-0.9-4.1,0-6c0.4-0.8,1.1-1.5,1.9-2C707.2,134.2,708.2,134,709.2,134z M709.2,136.1
			c-0.8,0-1.5,0.4-2,1c-1,1.7-1,3.7,0,5.4c0.5,0.7,1.2,1,2,1s1.5-0.3,2-1c1-1.7,1-3.7,0-5.4C710.7,136.4,709.9,136,709.2,136.1z"/>
		<path d="M128.4,143.3c1.5,0.1,2.9-0.9,3.2-2.4l2.3,1.1c-0.3,1.1-1,2-1.9,2.6c-1,0.7-2.3,1-3.5,1c-1.3,0-2.5-0.3-3.6-1
			s-1.9-1.6-2.4-2.7c-1.1-2.6-1.1-5.5,0-8.1c1.1-2.3,3.4-3.8,6-3.7c1.2,0,2.5,0.3,3.5,0.9c0.9,0.6,1.6,1.5,1.9,2.6l-2.3,1.1
			c-0.3-1.5-1.7-2.5-3.2-2.4c-0.7,0-1.5,0.2-2.1,0.7s-1.1,1.1-1.4,1.9c-0.7,1.8-0.7,3.8,0,5.6c0.3,0.8,0.8,1.4,1.4,1.9
			C126.9,143,127.6,143.3,128.4,143.3z"/>
		<path d="M146.1,142.8c0,1.2,0,2,0.1,2.5h-2.3c0-0.1,0-0.2-0.1-0.5s0-0.7-0.1-1.1c-0.4,0.6-0.9,1.1-1.5,1.4
			c-0.6,0.3-1.4,0.5-2.1,0.5c-0.8,0-1.7-0.2-2.4-0.7s-1.3-1.2-1.7-2c-0.8-1.9-0.8-4.1,0-6c0.4-0.8,1-1.5,1.7-2.1
			c0.7-0.5,1.5-0.7,2.4-0.7c1.5,0,2.8,0.7,3.6,1.9c0-0.4,0-0.8,0.1-1.1s0.1-0.5,0.1-0.5h2.3c-0.1,0.5-0.1,1.4-0.1,2.5V142.8z
			 M143.4,139.8c0-1-0.2-1.9-0.8-2.7c-0.8-1.1-2.3-1.3-3.4-0.6l0,0c-0.4,0.3-0.8,0.8-1,1.3c-0.2,0.6-0.4,1.3-0.3,2
			c0,0.7,0.1,1.3,0.3,1.9c0.2,0.5,0.5,1,1,1.3c0.4,0.3,0.9,0.5,1.4,0.5c0.8,0,1.5-0.3,2-1C143.2,141.7,143.5,140.8,143.4,139.8
			L143.4,139.8z"/>
		<path d="M151.4,129.8v15.6h-2.6v-15.6H151.4z"/>
		<path d="M159,134c1,0,1.9,0.2,2.8,0.7c0.8,0.5,1.5,1.2,1.9,2c0.9,1.9,0.9,4.1,0,6c-0.4,0.8-1.1,1.5-1.9,2c-1.7,1-3.8,1-5.5,0
			c-0.8-0.5-1.5-1.2-1.9-2c-0.9-1.9-0.9-4.1,0-6c0.4-0.8,1.1-1.5,1.9-2C157.1,134.2,158,134,159,134z M159,136.1c-0.8,0-1.5,0.4-2,1
			c-1,1.7-1,3.7,0,5.4c0.5,0.7,1.2,1,2,1s1.5-0.3,2-1c1-1.7,1-3.7,0-5.4C160.6,136.4,159.8,136,159,136.1z"/>
		<path d="M172.6,134.1v2.3c-0.3,0-0.5-0.1-0.8-0.1c-0.7,0-1.4,0.2-1.9,0.8s-0.8,1.4-0.7,2.2v6h-2.6v-8.5c0-1,0-1.9-0.1-2.5h2.3
			c0.1,0.6,0.1,1.2,0.1,1.8c0.3-0.6,0.7-1.1,1.3-1.5c0.5-0.3,1.2-0.5,1.8-0.5C172.2,134,172.4,134,172.6,134.1z"/>
		<path d="M176,130c0.4,0,0.8,0.1,1.1,0.4c0.3,0.3,0.4,0.7,0.4,1.1c0,0.4-0.1,0.8-0.4,1.1c-0.3,0.3-0.7,0.5-1.1,0.4
			c-0.8,0.1-1.5-0.6-1.6-1.4c0-0.1,0-0.1,0-0.2c0-0.4,0.1-0.8,0.4-1.1C175.2,130.1,175.6,130,176,130z M177.3,134.3v11.1h-2.6v-11.1
			H177.3z"/>
		<path d="M189.8,140.5h-7.5c0,0.8,0.3,1.6,0.9,2.2c0.5,0.5,1.3,0.8,2,0.8c0.5,0,1-0.1,1.5-0.4c0.4-0.3,0.7-0.7,0.9-1.2l2.2,1
			c-0.7,1.7-2.2,2.6-4.5,2.6c-1,0-2-0.2-2.9-0.7c-0.8-0.5-1.5-1.2-1.9-2c-0.5-0.9-0.7-2-0.7-3s0.2-2.1,0.7-3
			c0.4-0.8,1.1-1.5,1.9-2.1c0.8-0.5,1.7-0.8,2.6-0.7c1,0,1.9,0.2,2.7,0.7s1.4,1.2,1.8,2c0.4,1,0.6,2,0.6,3.1
			C189.8,140.1,189.8,140.3,189.8,140.5z M182.3,138.6h4.9c0-0.7-0.3-1.4-0.8-1.9c-0.9-0.9-2.4-0.9-3.3,0
			C182.6,137.3,182.3,137.9,182.3,138.6L182.3,138.6z"/>
		<path d="M191.7,137.3c0-0.6,0.2-1.2,0.5-1.7c0.4-0.5,0.9-0.9,1.5-1.2c0.7-0.3,1.4-0.4,2.2-0.4c1,0,1.9,0.2,2.8,0.6
			c0.7,0.4,1.2,1,1.5,1.8l-2,0.9c-0.3-0.9-1.2-1.5-2.2-1.4c-0.4,0-0.9,0.1-1.2,0.3s-0.5,0.5-0.5,0.9s0.2,0.7,0.5,0.9
			c0.6,0.3,1.1,0.4,1.8,0.5c1.1,0.1,2.1,0.5,2.9,1.1c0.7,0.6,1,1.5,1,2.3c0,0.7-0.2,1.3-0.6,1.9c-0.4,0.5-0.9,1-1.6,1.2
			c-0.7,0.3-1.5,0.5-2.3,0.4c-1.1,0-2.1-0.2-3.1-0.7c-0.8-0.4-1.4-1.2-1.6-2l2-0.9c0.2,0.5,0.5,0.9,0.9,1.2c0.5,0.3,1.1,0.4,1.6,0.4
			s1-0.1,1.5-0.4c0.3-0.2,0.5-0.6,0.5-1s-0.2-0.8-0.5-1.1c-0.6-0.3-1.3-0.5-1.9-0.5c-1-0.1-2-0.5-2.8-1.1
			C192,139,191.7,138.2,191.7,137.3z"/>
		<path d="M210.6,132.8v3.6h5.9v2.4h-5.9v4.3h6.3v2.4h-9.2v-15h9.2v2.4L210.6,132.8L210.6,132.8z"/>
		<path d="M226.4,145.3l-2.4-4.2l-2.3,4.2h-3l3.6-5.6l-3.6-5.4h3.1l2.2,4.1l2.3-4.1h2.9l-3.5,5.4l3.7,5.6H226.4z"/>
		<path d="M236.2,134c1,0,2,0.2,2.8,0.7c0.7,0.4,1.2,1.1,1.4,1.9l-2.2,1.1c-0.1-0.4-0.3-0.8-0.7-1.1s-0.9-0.4-1.4-0.4
			c-0.8,0-1.5,0.4-2,1c-0.5,0.8-0.8,1.7-0.7,2.6c-0.1,0.9,0.2,1.9,0.7,2.6c0.5,0.6,1.2,1,2,1c0.5,0,1-0.1,1.4-0.4
			c0.3-0.3,0.6-0.7,0.7-1.1l2.2,1c-0.2,0.8-0.7,1.5-1.4,1.9c-0.9,0.5-1.8,0.8-2.8,0.7c-1,0-1.9-0.2-2.7-0.7s-1.5-1.2-1.9-2
			c-0.9-1.9-0.9-4.1,0-6c0.4-0.8,1.1-1.5,1.9-2C234.2,134.4,235.2,134.1,236.2,134z"/>
		<path d="M252.1,140.5h-7.6c0,0.8,0.3,1.6,0.9,2.2c0.5,0.5,1.3,0.8,2,0.8c0.5,0,1-0.1,1.5-0.4c0.4-0.3,0.7-0.7,0.9-1.2l2.2,1
			c-0.7,1.7-2.2,2.6-4.5,2.6c-1,0-2-0.2-2.9-0.7c-0.8-0.5-1.5-1.2-1.9-2c-0.5-0.9-0.7-2-0.7-3s0.2-2.1,0.7-3
			c0.4-0.8,1.1-1.5,1.9-2.1c0.8-0.5,1.7-0.8,2.6-0.7c1,0,1.9,0.2,2.7,0.7s1.4,1.2,1.8,2c0.4,1,0.6,2,0.6,3.1
			C252.2,140.1,252.2,140.3,252.1,140.5z M244.6,138.6h4.9c0-0.7-0.3-1.4-0.8-1.9c-0.9-0.9-2.4-0.9-3.3,0
			C245,137.3,244.7,137.9,244.6,138.6z"/>
		<path d="M265,139.8c0,1-0.2,2.1-0.6,3c-0.4,0.8-1,1.5-1.7,2s-1.5,0.7-2.4,0.7c-0.7,0-1.3-0.1-1.9-0.4c-0.6-0.3-1.1-0.6-1.5-1.1
			v5.3h-2.6v-12.5c0-1,0-1.9-0.1-2.5h2.3c0.1,0.5,0.1,1.1,0.1,1.6c0.4-0.6,0.9-1.1,1.5-1.4c0.7-0.3,1.4-0.5,2.1-0.5
			c0.8,0,1.7,0.3,2.4,0.7c0.7,0.5,1.3,1.2,1.7,2.1C264.8,137.7,265,138.8,265,139.8z M262.4,139.8c0-1-0.2-1.9-0.8-2.7
			c-0.5-0.6-1.2-1-2-1s-1.5,0.3-2,1c-1,1.7-1,3.7,0,5.4c0.5,0.7,1.2,1,2,1s1.5-0.4,2-1C262.2,141.7,262.4,140.8,262.4,139.8z"/>
		<path d="M270.6,136.3v5.6c-0.1,0.7,0.4,1.4,1.1,1.5c0.1,0,0.2,0,0.3,0c0.4,0,0.7,0,1.1-0.1v2c-0.5,0.2-1.1,0.3-1.7,0.3
			c-0.9,0.1-1.8-0.3-2.5-0.9c-0.6-0.7-1-1.6-0.9-2.6v-5.7h-1.5v-2.1h1.5v-2.6h2.6v2.6h2.5v2.1L270.6,136.3z"/>
		<path d="M283.4,132.8v3.8h5.7v2.4h-5.7v6.4h-2.8v-14.9h9v2.4L283.4,132.8L283.4,132.8z"/>
		<path d="M302,142.8c0,1.2,0,2,0.1,2.5h-2.3c0-0.1,0-0.2,0-0.5s0-0.7-0.1-1.1c-0.4,0.6-0.9,1.1-1.5,1.4c-0.6,0.3-1.4,0.5-2.1,0.5
			c-0.8,0-1.7-0.2-2.4-0.7c-0.7-0.5-1.3-1.2-1.7-2c-0.8-1.9-0.8-4.1,0-6c0.4-0.8,1-1.5,1.7-2.1c0.7-0.5,1.5-0.7,2.4-0.7
			c1.5,0,2.8,0.7,3.6,1.9c0-0.4,0-0.8,0.1-1.1s0-0.5,0-0.5h2.3c0,0.5-0.1,1.4-0.1,2.5V142.8z M299.4,139.8c0.1-1-0.2-1.9-0.8-2.7
			c-0.8-1.1-2.3-1.3-3.4-0.6l0,0c-0.5,0.3-0.8,0.8-1,1.3c-0.2,0.6-0.4,1.3-0.4,2s0.1,1.3,0.4,1.9c0.2,0.5,0.5,1,1,1.3
			c0.4,0.3,0.9,0.5,1.4,0.5c0.8,0,1.5-0.3,2-1C299.2,141.7,299.4,140.8,299.4,139.8z"/>
		<path d="M308,136.3v5.6c-0.1,0.7,0.4,1.3,1.1,1.5c0.1,0,0.2,0,0.4,0c0.4,0,0.7,0,1.1-0.1v2c-0.5,0.2-1.1,0.3-1.6,0.3
			c-0.9,0.1-1.8-0.3-2.5-0.9c-0.6-0.7-1-1.6-0.9-2.6v-5.7h-1.5v-2.1h1.5v-2.6h2.6v2.6h2.5v2.1L308,136.3z"/>
		<path d="M888.9,36.6c0,0.8-0.2,1.5-0.5,2.2c-0.3,0.6-0.8,1.1-1.5,1.5s-1.5,0.5-2.2,0.5h-6.8V25.9h6.5c0.7,0,1.4,0.2,2,0.5
			s1.1,0.8,1.4,1.4c0.3,0.6,0.5,1.3,0.5,2s-0.2,1.4-0.6,2c-0.4,0.5-1,1-1.6,1.2c0.8,0.2,1.5,0.7,2.1,1.3
			C888.7,34.9,889,35.7,888.9,36.6z M880.7,28.1V32h2.8c0.5,0,1.1-0.1,1.5-0.5s0.6-0.9,0.5-1.4c0-0.5-0.2-1.1-0.6-1.4
			c-0.4-0.4-0.9-0.5-1.5-0.5L880.7,28.1z M886.1,36.4c0-0.6-0.2-1.2-0.6-1.6c-0.5-0.4-1.1-0.6-1.7-0.6h-3v4.5h3
			c0.6,0,1.2-0.2,1.7-0.6C885.9,37.6,886.1,37,886.1,36.4L886.1,36.4z"/>
		<path d="M898.7,40.8c-0.1-0.5-0.1-1.1-0.1-1.6c-0.9,1.3-2.3,2-3.8,1.9c-1,0.1-2.1-0.3-2.8-1.1s-1.1-1.9-1-3v-7.3h2.6v6.8
			c0,1.5,0.7,2.3,2.2,2.3c0.7,0,1.4-0.3,1.9-0.8c0.5-0.6,0.7-1.4,0.7-2.2v-6.1h2.6v8.5c0,1,0,1.9,0.1,2.5L898.7,40.8L898.7,40.8z"/>
		<path d="M909.7,29.6v2.3c-0.3,0-0.5-0.1-0.8-0.1c-0.7,0-1.4,0.2-2,0.8c-0.5,0.6-0.8,1.4-0.7,2.2v6h-2.6v-8.5c0-1,0-1.9-0.1-2.5
			h2.3c0.1,0.6,0.1,1.2,0.1,1.8c0.3-0.6,0.7-1.1,1.3-1.5c0.5-0.3,1.2-0.5,1.8-0.5C909.2,29.5,909.4,29.5,909.7,29.6z"/>
		<path d="M921.7,29.7c0,1-0.1,1.9-0.1,2.5v7.9c0.1,1.3-0.4,2.7-1.4,3.6c-1.1,0.9-2.5,1.4-3.9,1.3c-2.8,0-4.5-0.9-5.1-2.7l2.1-1
			c0.2,0.5,0.5,0.9,1,1.1c0.6,0.3,1.2,0.4,1.9,0.4c0.8,0.1,1.6-0.2,2.2-0.7c0.5-0.6,0.8-1.3,0.7-2.1v-1c-1.4,1.7-3.8,2-5.6,0.8
			c-0.7-0.5-1.3-1.2-1.7-2c-0.4-0.9-0.6-1.9-0.6-2.9s0.2-2,0.6-3c0.4-0.8,0.9-1.5,1.7-2c0.7-0.5,1.5-0.7,2.3-0.7
			c0.7,0,1.4,0.2,2,0.5s1.1,0.8,1.5,1.4c0-0.4,0-0.8,0.1-1.1s0.1-0.5,0.1-0.5L921.7,29.7z M919,35.1c0-0.9-0.2-1.8-0.7-2.6
			c-0.4-0.6-1.1-1-1.9-1c-0.8,0-1.5,0.4-1.9,1c-0.5,0.8-0.8,1.7-0.7,2.6c0,0.9,0.2,1.8,0.7,2.6c0.7,1,2.2,1.3,3.2,0.5l0,0
			c0.4-0.3,0.7-0.8,0.9-1.2C918.9,36.4,919,35.8,919,35.1z"/>
		<path d="M933.9,36h-7.5c0,0.8,0.3,1.6,0.9,2.2c0.5,0.5,1.2,0.8,2,0.8c0.5,0,1-0.1,1.5-0.4c0.4-0.3,0.7-0.7,0.9-1.2l2.2,1
			c-0.7,1.7-2.2,2.6-4.5,2.6c-1,0-2-0.2-2.9-0.7c-0.8-0.5-1.5-1.2-1.9-2c-0.5-0.9-0.7-2-0.7-3s0.2-2.1,0.7-3c0.4-0.8,1-1.6,1.8-2.1
			s1.7-0.7,2.6-0.7c0.9,0,1.9,0.2,2.7,0.7s1.4,1.2,1.8,2c0.4,0.9,0.6,2,0.6,3C934,35.5,934,35.8,933.9,36z M926.4,34.1h4.9
			c0-0.7-0.3-1.4-0.8-1.9c-0.4-0.4-1-0.7-1.7-0.6c-0.6,0-1.2,0.2-1.6,0.7C926.8,32.7,926.5,33.4,926.4,34.1L926.4,34.1z"/>
		<path d="M942.3,29.6v2.3c-0.3,0-0.5-0.1-0.8-0.1c-0.7,0-1.4,0.2-1.9,0.8s-0.8,1.4-0.7,2.2v6h-2.6v-8.5c0-1,0-1.9-0.1-2.5h2.3
			c0.1,0.6,0.1,1.2,0.1,1.8c0.3-0.6,0.7-1.1,1.3-1.5c0.5-0.3,1.2-0.5,1.8-0.5C941.8,29.5,942,29.5,942.3,29.6z"/>
		<path d="M958.1,40.8l-5.7-7.5v7.5h-2.8V25.9h2.8v6.7l5.2-6.7h3.4l-5.8,7l6.4,7.9H958.1z"/>
		<path d="M964.4,25.5c0.4,0,0.8,0.1,1.1,0.4s0.4,0.7,0.4,1.1s-0.1,0.8-0.4,1.1c-0.6,0.6-1.6,0.6-2.2,0c-0.3-0.3-0.4-0.7-0.4-1.1
			s0.1-0.8,0.4-1.1C963.5,25.6,963.9,25.4,964.4,25.5z M965.6,29.7v11.1H963V29.7H965.6z"/>
		<path d="M978.4,33.5v7.3h-2.6v-6.9c0-1.5-0.7-2.3-2.1-2.3c-0.7,0-1.4,0.3-1.9,0.8c-0.5,0.6-0.7,1.4-0.7,2.2v6.2h-2.6v-8.5
			c0-1,0-1.9-0.1-2.5h2.3c0.1,0.5,0.1,1.1,0.1,1.6c0.8-1.3,2.3-2,3.8-1.9c1-0.1,2,0.3,2.8,1.1C978.1,31.4,978.4,32.4,978.4,33.5z"/>
		<path d="M991,29.7c0,1-0.1,1.9-0.1,2.5v7.9c0.1,1.3-0.4,2.7-1.4,3.6c-1.1,0.9-2.5,1.4-3.9,1.3c-2.8,0-4.5-0.9-5.1-2.7l2.1-1
			c0.2,0.5,0.5,0.9,1,1.1c0.6,0.3,1.2,0.4,1.8,0.4c0.8,0.1,1.6-0.2,2.2-0.7c0.5-0.6,0.8-1.3,0.7-2.1v-1c-1.4,1.7-3.8,2-5.6,0.8
			c-0.7-0.5-1.3-1.2-1.7-2c-0.4-0.9-0.6-1.9-0.6-2.9s0.2-2,0.6-3c0.4-0.8,0.9-1.5,1.7-2c0.7-0.5,1.5-0.7,2.3-0.7
			c0.7,0,1.4,0.2,2,0.5s1.1,0.8,1.5,1.4c0-0.4,0-0.8,0.1-1.1s0-0.5,0-0.5L991,29.7z M988.3,35.1c0-0.9-0.2-1.8-0.7-2.6
			c-0.4-0.6-1.1-1-1.9-1c-0.8,0-1.5,0.4-1.9,1c-0.5,0.8-0.8,1.7-0.7,2.6c0,0.9,0.2,1.8,0.7,2.6c0.7,1,2.2,1.3,3.2,0.5l0,0
			c0.4-0.3,0.7-0.8,0.9-1.2C988.2,36.4,988.4,35.8,988.3,35.1z"/>
		<path d="M1429.9,88.7v3.8h5.7v2.4h-5.7v6.4h-2.8v-15h9v2.4C1436.1,88.7,1429.9,88.7,1429.9,88.7z"/>
		<path d="M1448.5,98.7c0,1.2,0,2,0.1,2.5h-2.3c0,0,0-0.2,0-0.5s0-0.7-0.1-1.1c-0.4,0.6-0.9,1.1-1.5,1.4s-1.4,0.5-2.1,0.5
			c-0.8,0-1.7-0.2-2.4-0.7c-0.7-0.5-1.3-1.2-1.7-2c-0.8-1.9-0.8-4.1,0-6c0.4-0.8,1-1.5,1.7-2s1.5-0.7,2.4-0.7c1.4,0,2.8,0.6,3.6,1.8
			c0-0.4,0-0.8,0.1-1.1s0-0.5,0-0.5h2.3c-0.1,0.5-0.1,1.4-0.1,2.5V98.7z M1445.9,95.7c0-1-0.2-1.9-0.8-2.7c-0.5-0.6-1.2-1-2-1
			c-0.5,0-1,0.2-1.4,0.5s-0.8,0.8-1,1.3c-0.5,1.3-0.5,2.6,0,3.9c0.2,0.5,0.6,1,1,1.3s0.9,0.5,1.4,0.5c0.8,0,1.5-0.4,2-1
			C1445.7,97.6,1445.9,96.7,1445.9,95.7L1445.9,95.7z"/>
		<path d="M1454.5,92.2v5.6c-0.1,0.7,0.4,1.4,1.1,1.5c0.1,0,0.2,0,0.4,0c0.4,0,0.7,0,1.1-0.1v2c-0.5,0.2-1.1,0.3-1.7,0.3
			c-0.9,0.1-1.8-0.3-2.5-0.9c-0.6-0.7-1-1.6-0.9-2.6v-5.7h-1.5v-2.1h1.5v-2.6h2.6v2.6h2.5v2.1h-2.6V92.2z"/>
		<path d="M1464.8,103.1h-2.5c-0.9-1.2-1.6-2.5-2.1-3.8c-0.6-1.7-0.9-3.4-0.9-5.2c0-1.7,0.3-3.3,0.8-4.9c0.5-1.5,1.2-2.9,2.2-4.1
			h2.5c-1,1.2-1.7,2.5-2.1,4c-0.6,1.6-0.8,3.3-0.8,5.1c0,1.2,0.2,2.4,0.5,3.6c0.3,1.1,0.7,2.1,1.2,3.2
			C1463.9,101.7,1464.3,102.4,1464.8,103.1z"/>
		<path d="M1476.8,90.2c0,1.1-0.1,1.9-0.1,2.5v7.9c0.1,1.3-0.4,2.7-1.4,3.6c-1.1,0.9-2.5,1.4-3.9,1.3c-2.8,0-4.5-0.9-5.1-2.7l2.1-1
			c0.2,0.5,0.5,0.9,1,1.1c0.6,0.3,1.2,0.4,1.8,0.4c0.8,0.1,1.6-0.2,2.2-0.7c0.5-0.6,0.8-1.3,0.7-2.1v-1c-0.8,1-2,1.6-3.3,1.5
			c-0.8,0-1.6-0.2-2.3-0.7c-0.7-0.5-1.3-1.2-1.7-2c-0.4-0.9-0.6-1.9-0.6-2.9s0.2-2,0.6-2.9c0.4-0.8,0.9-1.5,1.7-2
			c0.7-0.5,1.5-0.7,2.3-0.7c1.4,0,2.8,0.7,3.5,1.9c0-0.4,0-0.7,0.1-1.1c0-0.2,0-0.4,0-0.6L1476.8,90.2z M1474.1,95.6
			c0-0.9-0.2-1.8-0.7-2.6c-0.4-0.6-1.1-1-1.9-1s-1.5,0.4-1.9,1c-0.5,0.8-0.8,1.7-0.7,2.6c0,0.9,0.2,1.8,0.7,2.6c0.4,0.6,1.1,1,1.9,1
			c0.5,0,1-0.1,1.4-0.4s0.7-0.8,0.9-1.2C1474,96.8,1474.1,96.2,1474.1,95.6z"/>
		<path d="M1478.6,85h2.6c0.9,1.2,1.6,2.5,2.1,3.8c0.6,1.7,0.9,3.4,0.9,5.2c0,1.7-0.3,3.3-0.8,4.9c-0.5,1.5-1.2,2.9-2.2,4.1h-2.6
			c1-1.2,1.7-2.5,2.1-4c0.6-1.6,0.9-3.4,0.8-5.1c0-1.2-0.2-2.4-0.5-3.6c-0.3-1.1-0.7-2.1-1.2-3.1C1479.5,86.5,1479.1,85.8,1478.6,85
			z"/>
		<path d="M1010.1,90.4c0-0.8,0.2-1.6,0.6-2.2c0.4-0.7,1.1-1.2,1.8-1.5c0.9-0.4,1.8-0.6,2.8-0.6c1.2,0,2.3,0.2,3.3,0.8
			c0.9,0.5,1.5,1.4,1.8,2.3l-2.2,1c-0.2-0.5-0.5-1-1-1.3s-1.1-0.5-1.8-0.4c-0.6,0-1.3,0.1-1.8,0.5c-0.4,0.3-0.6,0.8-0.6,1.3
			s0.2,1,0.6,1.3c0.7,0.4,1.4,0.6,2.2,0.7c1.4,0.2,2.6,0.7,3.7,1.6c1.3,1.5,1.5,3.7,0.5,5.4c-0.5,0.7-1.2,1.3-1.9,1.6
			c-2.1,0.9-4.5,0.7-6.5-0.3c-1-0.6-1.7-1.5-2-2.6l2.3-1.1c0.2,0.7,0.6,1.2,1.2,1.6c0.6,0.4,1.4,0.6,2.1,0.5c0.7,0.1,1.4-0.1,2-0.5
			c0.5-0.4,0.7-0.9,0.7-1.5s-0.2-1.1-0.7-1.5c-0.7-0.5-1.6-0.8-2.5-0.9c-1.3-0.2-2.4-0.7-3.4-1.5
			C1010.5,92.4,1010.1,91.4,1010.1,90.4z"/>
		<path d="M1027.5,89.9c1,0,1.9,0.2,2.8,0.7c0.8,0.5,1.5,1.2,1.9,2c0.9,1.9,0.9,4.1,0,6c-0.4,0.8-1.1,1.5-1.9,2c-1.7,1-3.8,1-5.5,0
			c-0.8-0.5-1.5-1.2-1.9-2c-0.9-1.9-0.9-4.1,0-6c0.4-0.8,1.1-1.5,1.9-2C1025.6,90.1,1026.6,89.9,1027.5,89.9z M1027.5,92
			c-0.8,0-1.5,0.3-2,1c-0.5,0.8-0.8,1.7-0.8,2.7s0.2,1.9,0.8,2.7c0.5,0.7,1.2,1,2,1s1.5-0.3,2-1c0.5-0.8,0.8-1.7,0.8-2.7
			s-0.2-1.9-0.8-2.7C1029.1,92.3,1028.3,91.9,1027.5,92z"/>
		<path d="M1043.1,101.2c-0.1-0.5-0.1-1.1-0.1-1.6c-0.4,0.6-0.9,1.1-1.5,1.4s-1.4,0.5-2.1,0.5c-0.8,0-1.7-0.2-2.4-0.7
			c-0.7-0.5-1.3-1.2-1.7-2c-0.8-1.9-0.8-4.1,0-6c0.4-0.8,1-1.5,1.7-2s1.5-0.7,2.4-0.7c0.7,0,1.3,0.1,1.9,0.4s1.1,0.7,1.4,1.2v-5.9
			h2.6v13c0,1,0,1.9,0.1,2.5L1043.1,101.2z M1042.8,95.7c0-1-0.2-1.9-0.8-2.7c-0.5-0.6-1.2-1-2-1c-0.5,0-1,0.2-1.4,0.5
			c-0.5,0.3-0.8,0.8-1,1.3c-0.2,0.6-0.4,1.3-0.3,2c0,0.7,0.1,1.4,0.3,2c0.2,0.5,0.5,1,1,1.3c0.4,0.3,0.9,0.5,1.4,0.5
			c0.8,0,1.5-0.4,2-1C1042.6,97.7,1042.8,96.7,1042.8,95.7z"/>
		<path d="M1049.4,85.9c0.4,0,0.8,0.1,1.1,0.4c0.3,0.3,0.4,0.7,0.4,1.1s-0.1,0.8-0.4,1.1c-0.6,0.6-1.6,0.6-2.2,0
			c-0.3-0.3-0.4-0.7-0.4-1.1C1047.8,86.6,1048.5,85.9,1049.4,85.9C1049.3,85.9,1049.3,85.9,1049.4,85.9z M1050.7,90.2v11.1h-2.6
			V90.2H1050.7z"/>
		<path d="M1061.1,101.2c-0.1-0.5-0.1-1.1-0.1-1.6c-0.9,1.3-2.3,2-3.8,1.9c-1,0.1-2-0.3-2.8-1.1c-0.7-0.8-1.1-1.9-1-3v-7.3h2.6V97
			c0,1.5,0.7,2.3,2.1,2.3c0.7,0,1.4-0.3,1.9-0.8c0.5-0.6,0.7-1.4,0.7-2.2v-6.1h2.6v8.5c0,1,0,1.9,0.1,2.5
			C1063.4,101.2,1061.1,101.2,1061.1,101.2z"/>
		<path d="M1081.9,93.6v7.6h-2.6V94c0-1.3-0.6-2-1.8-2c-0.6,0-1.2,0.2-1.6,0.7s-0.6,1.2-0.6,1.9v6.6h-2.6V94c0-1.3-0.6-2-1.8-2
			c-0.6,0-1.2,0.2-1.6,0.7s-0.6,1.2-0.6,1.9v6.6h-2.6v-8.5c0-1,0-1.9-0.1-2.5h2.3c0,0.3,0.1,0.8,0.1,1.5c0.7-1.2,2.1-1.9,3.4-1.8
			c0.7,0,1.3,0.1,1.9,0.5c0.5,0.3,0.9,0.8,1.2,1.3c0.8-1.2,2.2-1.9,3.6-1.8c1,0,1.9,0.3,2.5,1C1081.6,91.7,1082,92.6,1081.9,93.6z"
			/>
		<path d="M1090.3,103.1h-2.5c-0.9-1.2-1.6-2.5-2.1-3.8c-0.6-1.7-0.9-3.4-0.9-5.2c0-1.7,0.3-3.3,0.8-4.9c0.5-1.5,1.2-2.9,2.2-4.1
			h2.5c-1,1.2-1.7,2.5-2.1,4c-0.6,1.6-0.8,3.3-0.8,5.1c0,1.2,0.2,2.4,0.5,3.6c0.3,1.1,0.7,2.1,1.1,3.2
			C1089.3,101.7,1089.8,102.4,1090.3,103.1z"/>
		<path d="M1108.1,93.6v7.6h-2.6V94c0-1.3-0.6-2-1.8-2c-0.6,0-1.2,0.2-1.6,0.7s-0.6,1.2-0.6,1.9v6.6h-2.6V94c0-1.3-0.6-2-1.8-2
			c-0.6,0-1.2,0.2-1.6,0.7s-0.6,1.2-0.6,1.9v6.6h-2.6v-8.5c0-1,0-1.9-0.1-2.5h2.3c0.1,0.5,0.1,1,0.1,1.5c0.7-1.2,2.1-1.9,3.4-1.8
			c0.7,0,1.3,0.1,1.9,0.5c0.5,0.3,0.9,0.8,1.2,1.3c0.8-1.2,2.2-1.9,3.6-1.8c1,0,1.9,0.3,2.6,1C1107.8,91.7,1108.1,92.6,1108.1,93.6z
			"/>
		<path d="M1120.8,90.2c0,1.1-0.1,1.9-0.1,2.5v7.9c0.1,1.3-0.4,2.7-1.4,3.6c-1.1,0.9-2.5,1.4-3.9,1.3c-2.8,0-4.5-0.9-5.1-2.7l2.1-1
			c0.2,0.5,0.5,0.9,1,1.1c0.6,0.3,1.2,0.4,1.8,0.4c0.8,0.1,1.6-0.2,2.2-0.7c0.5-0.6,0.8-1.3,0.7-2.1v-1c-1.4,1.7-3.8,2-5.6,0.8
			c-0.7-0.5-1.3-1.2-1.7-2c-0.8-1.9-0.8-4,0-5.9c0.4-0.8,0.9-1.5,1.7-2c0.7-0.5,1.5-0.7,2.3-0.7c1.4,0,2.8,0.7,3.5,1.9
			c0-0.4,0-0.7,0.1-1.1c0-0.2,0-0.4,0-0.6L1120.8,90.2z M1118.1,95.6c0-0.9-0.2-1.8-0.7-2.6c-0.7-1-2.2-1.3-3.2-0.6
			c-0.2,0.2-0.4,0.3-0.6,0.6c-0.5,0.8-0.8,1.7-0.7,2.6c0,0.9,0.2,1.8,0.7,2.6c0.4,0.6,1.1,1,1.9,1c0.5,0,1-0.2,1.4-0.4
			c0.4-0.3,0.7-0.8,0.9-1.2C1118,96.8,1118.1,96.2,1118.1,95.6z"/>
		<path d="M1122.5,85h2.6c0.9,1.2,1.6,2.5,2.1,3.8c0.6,1.7,0.9,3.4,0.9,5.2c0,1.7-0.3,3.3-0.8,4.9c-0.5,1.5-1.2,2.9-2.2,4.1h-2.6
			c1-1.2,1.7-2.5,2.1-4c0.6-1.6,0.9-3.4,0.8-5.1c0-1.2-0.2-2.4-0.5-3.6c-0.3-1.1-0.7-2.1-1.1-3.2C1123.5,86.5,1123.1,85.7,1122.5,85
			z"/>
		<path d="M1247.4,134.6h-3.9v12.6h-2.8v-12.6h-3.9v-2.4h10.7L1247.4,134.6L1247.4,134.6z"/>
		<path d="M1251.9,135.8c1,0,1.9,0.2,2.7,0.7c0.8,0.5,1.5,1.2,1.9,2c0.9,1.9,0.9,4.1,0,6c-0.4,0.8-1.1,1.5-1.9,2s-1.8,0.7-2.7,0.7
			c-1,0-1.9-0.2-2.8-0.7c-0.8-0.5-1.5-1.2-1.9-2c-0.9-1.9-0.9-4.1,0-6c0.4-0.8,1.1-1.5,1.9-2S1250.9,135.8,1251.9,135.8z
			 M1251.9,137.9c-0.8,0-1.5,0.3-2,1c-1,1.7-1,3.7,0,5.4c0.5,0.7,1.2,1,2,1s1.5-0.3,2-1c1-1.7,1-3.7,0-5.4
			C1253.4,138.2,1252.6,137.9,1251.9,137.9L1251.9,137.9z"/>
		<path d="M1262.8,138.2v5.6c-0.1,0.7,0.4,1.4,1.1,1.5c0.1,0,0.2,0,0.3,0c0.4,0,0.7,0,1.1-0.1v2c-0.5,0.2-1.1,0.3-1.7,0.3
			c-0.9,0.1-1.8-0.3-2.5-0.9c-0.6-0.7-1-1.6-0.9-2.6v-5.7h-1.5v-2.1h1.5v-2.6h2.6v2.6h2.5v2.1L1262.8,138.2z"/>
		<path d="M1277.6,144.6c0,1.2,0,2,0.1,2.5h-2.3c0-0.1,0-0.2,0-0.5s-0.1-0.7-0.1-1.1c-0.4,0.6-0.9,1.1-1.5,1.4
			c-0.6,0.3-1.4,0.5-2.1,0.5c-0.8,0-1.7-0.2-2.4-0.7c-0.7-0.5-1.3-1.2-1.7-2c-0.4-0.9-0.6-2-0.6-3s0.2-2.1,0.6-3
			c0.4-0.8,1-1.5,1.7-2s1.5-0.7,2.4-0.7c1.5,0,2.8,0.7,3.6,1.9c0-0.4,0-0.8,0.1-1.1s0-0.5,0-0.5h2.3c0,0.5-0.1,1.4-0.1,2.5V144.6z
			 M1275,141.6c0.1-1-0.2-1.9-0.8-2.7c-0.8-1.1-2.3-1.3-3.4-0.6l0,0c-0.5,0.3-0.8,0.8-1,1.3c-0.2,0.6-0.4,1.3-0.3,2
			c0,0.7,0.1,1.3,0.3,1.9c0.2,0.5,0.5,1,1,1.3c0.4,0.3,0.9,0.5,1.4,0.5c0.8,0,1.5-0.3,2-1C1274.8,143.6,1275.1,142.6,1275,141.6
			L1275,141.6z"/>
		<path d="M1282.9,131.6v15.6h-2.6v-15.6H1282.9z"/>
		<path d="M1297.4,145.1c1.5,0.1,2.8-0.9,3.2-2.4l2.3,1c-0.3,1.1-1,2-1.9,2.6c-1,0.7-2.3,1-3.5,1c-1.3,0-2.5-0.3-3.6-1
			c-1.1-0.6-1.9-1.6-2.4-2.7c-0.6-1.2-0.9-2.6-0.9-4s0.3-2.8,0.9-4c0.5-1.1,1.4-2.1,2.4-2.7c1.1-0.7,2.3-1,3.6-1
			c1.2,0,2.5,0.3,3.5,0.9c0.9,0.6,1.6,1.5,1.9,2.6l-2.3,1.1c-0.3-1.5-1.7-2.5-3.2-2.4c-0.7,0-1.5,0.2-2.1,0.7s-1.1,1.2-1.4,1.9
			c-0.7,1.8-0.7,3.8,0,5.6c0.3,0.7,0.8,1.4,1.4,1.9C1296,144.9,1296.7,145.1,1297.4,145.1z"/>
		<path d="M1315.1,144.6c0,1.2,0,2,0.1,2.5h-2.3c0-0.1,0-0.2,0-0.5s-0.1-0.7-0.1-1.1c-0.4,0.6-0.9,1.1-1.5,1.4
			c-0.6,0.3-1.4,0.5-2.1,0.5c-0.8,0-1.7-0.2-2.4-0.7c-0.7-0.5-1.3-1.2-1.7-2c-0.4-0.9-0.6-2-0.6-3s0.2-2.1,0.6-3
			c0.4-0.8,1-1.5,1.7-2s1.5-0.7,2.4-0.7c1.5,0,2.8,0.7,3.6,1.9c0-0.4,0-0.8,0.1-1.1s0-0.5,0-0.5h2.3c0,0.5-0.1,1.4-0.1,2.5V144.6z
			 M1312.5,141.6c0.1-1-0.2-1.9-0.8-2.7c-0.8-1.1-2.3-1.3-3.4-0.6l0,0c-0.5,0.3-0.8,0.8-1,1.3c-0.2,0.6-0.4,1.3-0.3,2
			c0,0.7,0.1,1.3,0.3,1.9c0.2,0.5,0.5,1,1,1.3c0.4,0.3,0.9,0.5,1.4,0.5c0.8,0,1.5-0.3,2-1C1312.3,143.6,1312.6,142.6,1312.5,141.6
			L1312.5,141.6z"/>
		<path d="M1323.8,136v2.3c-0.3,0-0.5-0.1-0.8-0.1c-0.7,0-1.4,0.2-1.9,0.8s-0.8,1.4-0.7,2.2v6h-2.6v-8.5c0-1,0-1.9-0.1-2.5h2.3
			c0.1,0.6,0.1,1.2,0.1,1.8c0.3-0.6,0.7-1.1,1.3-1.5c0.5-0.3,1.2-0.5,1.8-0.5C1323.4,135.8,1323.6,135.9,1323.8,136z"/>
		<path d="M1336.4,141.6c0,1-0.2,2.1-0.6,3c-0.4,0.8-1,1.5-1.7,2s-1.5,0.7-2.4,0.7c-0.7,0-1.4-0.2-2.1-0.5c-0.6-0.3-1.1-0.8-1.5-1.4
			c0,0.5,0,1.1-0.1,1.6h-2.3c0.1-0.7,0.1-1.5,0.1-2.5v-13h2.6v5.8c0.4-0.5,0.9-0.9,1.4-1.1c0.6-0.3,1.3-0.4,1.9-0.4
			c0.8,0,1.7,0.3,2.4,0.7c0.7,0.5,1.3,1.2,1.7,2C1336.3,139.5,1336.5,140.6,1336.4,141.6z M1333.8,141.6c0.1-1-0.2-1.9-0.8-2.7
			c-0.8-1.1-2.3-1.4-3.4-0.6c-0.3,0.2-0.5,0.4-0.6,0.6c-1,1.7-1,3.7,0,5.4c0.8,1.1,2.3,1.4,3.4,0.6c0.3-0.2,0.5-0.4,0.6-0.6
			C1333.6,143.5,1333.9,142.6,1333.8,141.6z"/>
		<path d="M1344.4,149.1h-2.5c-0.9-1.2-1.6-2.5-2.1-3.8c-0.6-1.7-0.9-3.4-0.9-5.2c0-1.7,0.3-3.3,0.8-4.9c0.5-1.5,1.2-2.9,2.2-4.1
			h2.5c-1,1.2-1.7,2.5-2.1,4c-0.6,1.6-0.8,3.4-0.8,5.1c0,1.2,0.2,2.4,0.5,3.6c0.3,1.1,0.7,2.1,1.2,3.2
			C1343.4,147.6,1343.9,148.4,1344.4,149.1z"/>
		<path d="M1356.3,136.1c-0.1,1-0.1,1.9-0.1,2.5v7.9c0.1,1.3-0.4,2.7-1.4,3.6c-1.1,0.9-2.5,1.4-3.9,1.3c-2.8,0-4.5-0.9-5.1-2.6
			l2.1-1c0.2,0.5,0.5,0.9,1,1.1c0.6,0.3,1.2,0.4,1.9,0.4c0.8,0.1,1.6-0.2,2.2-0.7c0.5-0.6,0.8-1.3,0.7-2.1v-1c-0.8,1-2,1.6-3.3,1.5
			c-0.8,0-1.6-0.2-2.3-0.7c-0.7-0.5-1.3-1.2-1.7-2c-0.4-0.9-0.6-1.9-0.6-2.9s0.2-2,0.6-2.9c0.4-0.8,0.9-1.5,1.7-2
			c0.7-0.5,1.5-0.7,2.3-0.7c0.7,0,1.4,0.2,2,0.5s1.1,0.8,1.5,1.4c0-0.4,0-0.8,0.1-1.1s0.1-0.5,0.1-0.6L1356.3,136.1z M1353.7,141.5
			c0-0.9-0.2-1.8-0.7-2.6c-0.4-0.6-1.1-1-1.9-1s-1.5,0.4-1.9,1c-0.5,0.8-0.8,1.7-0.7,2.6c0,0.9,0.2,1.8,0.7,2.6
			c0.7,1,2.2,1.3,3.2,0.5l0,0c0.4-0.3,0.7-0.8,0.9-1.2C1353.5,142.8,1353.7,142.1,1353.7,141.5z"/>
		<path d="M1358.1,131h2.6c0.9,1.2,1.6,2.5,2.1,3.9c0.6,1.7,0.9,3.4,0.9,5.2c0,1.7-0.3,3.3-0.8,4.9c-0.5,1.5-1.2,2.9-2.2,4.1h-2.6
			c1-1.2,1.7-2.5,2.1-4c0.6-1.6,0.9-3.4,0.8-5.1c0-1.2-0.2-2.4-0.5-3.6c-0.3-1.1-0.7-2.1-1.1-3.2
			C1359.1,132.4,1358.6,131.7,1358.1,131z"/>
		<path d="M1023.6,139.7c0,1.4-0.2,2.7-0.8,3.9c-0.5,1.1-1.3,2-2.3,2.6c-1.1,0.6-2.3,0.9-3.5,0.9h-5.7v-14.9h5.7
			c1.2,0,2.5,0.3,3.5,0.9c1,0.6,1.8,1.5,2.3,2.6C1023.3,137,1023.6,138.4,1023.6,139.7z M1020.8,139.7c0.1-1.3-0.3-2.7-1.2-3.7
			c-0.8-0.9-2-1.4-3.2-1.4h-2.4v10.2h2.4c1.2,0.1,2.4-0.4,3.2-1.4C1020.4,142.4,1020.9,141.1,1020.8,139.7z"/>
		<path d="M1027.3,131.8c0.8-0.1,1.5,0.6,1.5,1.4c0,0.1,0,0.1,0,0.2c0,0.4-0.1,0.8-0.4,1.1c-0.6,0.6-1.6,0.6-2.2,0
			c-0.3-0.3-0.4-0.7-0.4-1.1c-0.1-0.8,0.5-1.5,1.3-1.6C1027.2,131.8,1027.3,131.8,1027.3,131.8z M1028.6,136.1v11.1h-2.6v-11
			L1028.6,136.1z"/>
		<path d="M1041.1,142.3h-7.6c0,0.8,0.3,1.6,0.9,2.2c0.5,0.5,1.3,0.8,2,0.8c0.5,0,1-0.1,1.5-0.4c0.4-0.3,0.7-0.7,0.9-1.2l2.2,1
			c-0.7,1.7-2.2,2.6-4.5,2.6c-1,0-2-0.2-2.9-0.7c-0.8-0.5-1.5-1.2-1.9-2c-0.5-0.9-0.7-2-0.7-3s0.2-2.1,0.7-3
			c0.4-0.8,1.1-1.5,1.8-2.1c0.8-0.5,1.7-0.8,2.6-0.7c1,0,1.9,0.2,2.7,0.7c0.8,0.5,1.4,1.2,1.8,2c0.4,1,0.6,2,0.6,3.1
			C1041.1,141.9,1041.1,142.1,1041.1,142.3z M1033.6,140.5h4.9c0-0.7-0.3-1.4-0.8-1.9c-0.9-0.9-2.4-0.9-3.3,0
			C1034,139.1,1033.7,139.8,1033.6,140.5L1033.6,140.5z"/>
		<path d="M1046.7,138.2v5.6c-0.1,0.7,0.4,1.3,1.1,1.5c0.1,0,0.2,0,0.4,0c0.4,0,0.7,0,1.1-0.1v2c-0.5,0.2-1.1,0.3-1.7,0.3
			c-0.9,0.1-1.8-0.3-2.5-0.9c-0.6-0.7-1-1.6-0.9-2.6v-5.7h-1.5v-2.1h1.5v-2.6h2.6v2.6h2.5v2.1L1046.7,138.2z"/>
		<path d="M1061.6,144.6c0,1.2,0,2,0.1,2.5h-2.3c0-0.1,0-0.2,0-0.5s0-0.7-0.1-1.1c-0.4,0.6-0.9,1.1-1.5,1.4
			c-0.6,0.3-1.4,0.5-2.1,0.5c-0.8,0-1.7-0.2-2.4-0.7c-0.7-0.5-1.3-1.2-1.7-2c-0.4-0.9-0.6-2-0.6-3s0.2-2.1,0.6-3
			c0.4-0.8,1-1.5,1.7-2s1.5-0.7,2.4-0.7c1.5,0,2.8,0.7,3.6,1.9c0-0.4,0-0.8,0.1-1.1s0-0.5,0-0.5h2.3c0,0.5-0.1,1.4-0.1,2.5V144.6z
			 M1058.9,141.6c0-1-0.2-1.9-0.8-2.7c-0.8-1.1-2.3-1.3-3.4-0.6l0,0c-0.5,0.3-0.8,0.8-1,1.3c-0.2,0.6-0.4,1.3-0.3,2
			c0,0.7,0.1,1.3,0.3,1.9c0.2,0.5,0.5,1,1,1.3c0.4,0.3,0.9,0.5,1.4,0.5c0.8,0,1.5-0.4,2-1C1058.7,143.6,1059,142.6,1058.9,141.6
			L1058.9,141.6z"/>
		<path d="M1070.3,136v2.3c-0.3,0-0.5-0.1-0.8-0.1c-0.7,0-1.5,0.2-2,0.8s-0.8,1.4-0.7,2.2v6h-2.6v-8.5c0-0.8,0-1.7-0.1-2.5h2.3
			c0.1,0.6,0.1,1.2,0.1,1.8c0.3-0.6,0.7-1.1,1.3-1.5c0.5-0.3,1.2-0.5,1.8-0.5C1069.7,135.8,1070,135.9,1070.3,136z"/>
		<path d="M1082.3,136.1l-5.6,15.1h-2.8l1.8-3.8l-4.4-11.3h3l2.7,8.8l2.5-8.8H1082.3z"/>
		<path d="M1092.2,134.6v3.7h5.7v2.4h-5.7v6.4h-2.8v-14.9h9v2.4L1092.2,134.6L1092.2,134.6z"/>
		<path d="M1102,131.8c0.4,0,0.8,0.1,1.1,0.4c0.3,0.3,0.4,0.7,0.4,1.1c0,0.8-0.6,1.5-1.4,1.6c-0.1,0-0.1,0-0.2,0
			c-0.4,0-0.8-0.1-1.1-0.4c-0.3-0.3-0.4-0.7-0.4-1.1c-0.1-0.8,0.5-1.5,1.3-1.6C1101.9,131.8,1102,131.8,1102,131.8z M1103.3,136.1
			v11.1h-2.6v-11L1103.3,136.1z"/>
		<path d="M1116.8,141.6c0,1-0.2,2.1-0.6,3c-0.4,0.8-1,1.5-1.7,2s-1.5,0.7-2.4,0.7c-0.7,0-1.4-0.2-2.1-0.5c-0.6-0.3-1.1-0.8-1.5-1.4
			c0,0.5,0,1.1-0.1,1.6h-2.3c0.1-0.7,0.1-1.5,0.1-2.5v-13h2.6v5.8c0.4-0.5,0.9-0.9,1.4-1.1c0.6-0.3,1.3-0.4,1.9-0.4
			c0.8,0,1.7,0.3,2.4,0.7c0.7,0.5,1.3,1.2,1.7,2C1116.6,139.5,1116.8,140.6,1116.8,141.6z M1114.1,141.6c0.1-1-0.2-1.9-0.8-2.7
			c-0.8-1.1-2.3-1.4-3.4-0.6c-0.3,0.2-0.5,0.4-0.6,0.6c-1,1.7-1,3.7,0,5.4c0.8,1.1,2.3,1.4,3.4,0.6c0.3-0.2,0.5-0.4,0.6-0.6
			C1113.9,143.5,1114.2,142.6,1114.1,141.6z"/>
		<path d="M1128.6,142.3h-7.5c0,0.8,0.3,1.6,0.9,2.2c0.5,0.5,1.3,0.8,2,0.8c0.5,0,1.1-0.1,1.5-0.4c0.4-0.3,0.7-0.7,0.8-1.2l2.2,1
			c-0.7,1.7-2.2,2.6-4.5,2.6c-1,0-2-0.2-2.9-0.7c-0.8-0.5-1.5-1.2-1.9-2c-0.5-0.9-0.7-2-0.7-3s0.2-2.1,0.7-3
			c0.4-0.8,1.1-1.5,1.8-2.1c0.8-0.5,1.7-0.8,2.6-0.7c0.9,0,1.9,0.2,2.7,0.7c0.8,0.5,1.4,1.2,1.8,2c0.4,1,0.6,2,0.6,3.1
			C1128.7,141.9,1128.7,142.1,1128.6,142.3z M1121.2,140.5h4.9c0-0.7-0.3-1.4-0.8-1.9c-0.9-0.9-2.4-0.9-3.3,0
			C1121.5,139.1,1121.2,139.8,1121.2,140.5z"/>
		<path d="M1136.9,136v2.3c-0.3,0-0.5-0.1-0.8-0.1c-0.7,0-1.4,0.2-1.9,0.8s-0.8,1.4-0.7,2.2v6h-2.6v-8.5c0-1,0-1.9-0.1-2.5h2.3
			c0.1,0.6,0.1,1.2,0.1,1.8c0.3-0.6,0.7-1.1,1.3-1.5c0.5-0.3,1.2-0.5,1.8-0.5C1136.5,135.8,1136.7,135.9,1136.9,136z"/>
		<path d="M1144.7,149.1h-2.5c-0.9-1.2-1.6-2.5-2.1-3.8c-0.6-1.7-0.9-3.4-0.9-5.2c0-1.7,0.3-3.3,0.8-4.9c0.5-1.5,1.2-2.9,2.2-4.1
			h2.5c-0.9,1.2-1.7,2.5-2.1,4c-0.6,1.6-0.8,3.4-0.8,5.1c0,1.2,0.1,2.4,0.4,3.6c0.3,1.1,0.7,2.1,1.2,3.2
			C1143.7,147.6,1144.1,148.4,1144.7,149.1z"/>
		<path d="M1156.6,136.1c0,1-0.1,1.9-0.1,2.5v7.9c0.1,1.3-0.4,2.7-1.4,3.6c-1.1,0.9-2.5,1.4-3.9,1.3c-2.8,0-4.5-0.9-5.1-2.6l2.1-1
			c0.2,0.5,0.5,0.9,1,1.1c0.6,0.3,1.2,0.4,1.9,0.4c0.8,0.1,1.6-0.2,2.2-0.7c0.5-0.6,0.8-1.3,0.7-2.1v-1c-0.8,1-2,1.6-3.3,1.5
			c-0.8,0-1.6-0.2-2.3-0.7c-0.7-0.5-1.3-1.2-1.7-2c-0.4-0.9-0.6-1.9-0.6-2.9s0.2-2,0.6-2.9c0.4-0.8,0.9-1.5,1.7-2
			c0.7-0.5,1.5-0.7,2.3-0.7c0.7,0,1.4,0.2,2,0.5s1.1,0.8,1.5,1.4c0-0.4,0-0.8,0.1-1.1s0.1-0.5,0.1-0.6L1156.6,136.1z M1153.9,141.5
			c0-0.9-0.2-1.8-0.7-2.6c-0.4-0.6-1.1-1-1.9-1s-1.5,0.4-1.9,1c-0.5,0.8-0.8,1.7-0.7,2.6c0,0.9,0.2,1.8,0.7,2.6
			c0.7,1,2.2,1.3,3.2,0.5l0,0c0.4-0.3,0.7-0.8,0.9-1.2C1153.8,142.8,1153.9,142.1,1153.9,141.5L1153.9,141.5z"/>
		<path d="M1158.4,131h2.5c0.9,1.2,1.6,2.5,2.1,3.9c0.6,1.7,0.9,3.4,0.9,5.2c0,1.7-0.3,3.3-0.8,4.9c-0.5,1.5-1.2,2.9-2.2,4.1h-2.6
			c1-1.2,1.7-2.5,2.1-4c0.6-1.6,0.8-3.4,0.8-5.1c0-1.2-0.2-2.4-0.5-3.6c-0.3-1.1-0.7-2.1-1.1-3.2
			C1159.4,132.4,1158.9,131.7,1158.4,131z"/>
		<path d="M1248.4,91.2c0,0.9-0.2,1.8-0.6,2.5s-1,1.3-1.7,1.7c-0.8,0.4-1.7,0.6-2.6,0.6h-2.7v5.2h-2.8V86.3h5.5
			c0.9,0,1.8,0.2,2.6,0.6c0.7,0.4,1.3,1,1.7,1.7C1248.2,89.4,1248.4,90.3,1248.4,91.2z M1245.6,91.2c0.1-0.7-0.2-1.5-0.7-2
			s-1.3-0.7-2-0.7h-2v5.3h2c0.7,0,1.5-0.2,2-0.7C1245.4,92.6,1245.6,91.9,1245.6,91.2z"/>
		<path d="M1256.6,90v2.3c-0.3,0-0.5-0.1-0.8-0.1c-0.7,0-1.4,0.2-1.9,0.8c-0.5,0.6-0.8,1.4-0.7,2.2v6h-2.6v-8.5c0-1,0-1.9-0.1-2.5
			h2.3c0.1,0.6,0.1,1.2,0.1,1.8c0.3-0.6,0.7-1.1,1.3-1.5c0.5-0.3,1.2-0.5,1.8-0.5C1256.1,89.9,1256.3,89.9,1256.6,90z"/>
		<path d="M1263.4,89.9c1,0,1.9,0.2,2.7,0.7c0.8,0.5,1.5,1.2,1.9,2c0.9,1.9,0.9,4.1,0,6c-0.4,0.8-1.1,1.5-1.9,2s-1.8,0.7-2.7,0.7
			c-1,0-1.9-0.2-2.8-0.7c-0.8-0.5-1.5-1.2-1.9-2c-0.9-1.9-0.9-4.1,0-6c0.4-0.8,1.1-1.5,1.9-2C1261.5,90.1,1262.4,89.9,1263.4,89.9z
			 M1263.4,92c-0.8,0-1.5,0.3-2,1c-0.5,0.8-0.8,1.7-0.8,2.7s0.2,1.9,0.8,2.7c0.8,1.1,2.3,1.3,3.4,0.6c0.2-0.2,0.4-0.4,0.6-0.6
			c0.5-0.8,0.8-1.7,0.8-2.7s-0.2-1.9-0.8-2.7C1264.9,92.3,1264.2,92,1263.4,92z"/>
		<path d="M1274.3,92.2v5.6c-0.1,0.7,0.4,1.3,1.1,1.4c0.1,0,0.2,0,0.4,0c0.4,0,0.7,0,1.1-0.1v2c-0.5,0.2-1.1,0.3-1.7,0.3
			c-0.9,0.1-1.8-0.3-2.5-0.9c-0.6-0.7-1-1.6-0.9-2.6v-5.7h-1.5v-2.1h1.5v-2.6h2.6v2.6h2.5v2.1C1276.9,92.2,1274.3,92.2,1274.3,92.2z
			"/>
		<path d="M1288.6,96.4h-7.6c0,0.8,0.3,1.6,0.9,2.2c0.5,0.5,1.3,0.8,2,0.8c0.5,0,1-0.1,1.5-0.4c0.4-0.3,0.7-0.7,0.8-1.2l2.2,1
			c-0.7,1.7-2.2,2.6-4.5,2.6c-1,0-2-0.2-2.9-0.7c-0.8-0.5-1.5-1.2-1.9-2c-0.5-0.9-0.7-2-0.7-3s0.2-2.1,0.7-3c0.4-0.8,1.1-1.5,1.8-2
			c0.8-0.5,1.7-0.8,2.6-0.7c1,0,1.9,0.2,2.7,0.7c0.8,0.5,1.4,1.2,1.8,2c0.4,0.9,0.6,2,0.6,3C1288.6,96,1288.6,96.2,1288.6,96.4z
			 M1281.1,94.5h4.9c0-0.7-0.3-1.4-0.8-1.9c-0.9-0.9-2.4-0.9-3.3,0C1281.5,93.1,1281.2,93.8,1281.1,94.5L1281.1,94.5z"/>
		<path d="M1292.2,85.9c0.8-0.1,1.5,0.6,1.6,1.4c0,0.1,0,0.1,0,0.2c0.1,0.8-0.5,1.5-1.3,1.6c-0.1,0-0.1,0-0.2,0
			c-0.8,0.1-1.5-0.6-1.6-1.4c0-0.1,0-0.1,0-0.2C1290.7,86.7,1291.3,86,1292.2,85.9L1292.2,85.9z M1293.5,90.2v11.1h-2.6V90.2H1293.5
			z"/>
		<path d="M1306.3,94v7.3h-2.6v-6.9c0-1.5-0.7-2.3-2.1-2.3c-0.7,0-1.4,0.3-1.9,0.8c-0.5,0.6-0.7,1.4-0.7,2.2v6.2h-2.6v-8.5
			c0-1,0-1.9-0.1-2.5h2.3c0.1,0.5,0.1,1.1,0.1,1.7c0.8-1.3,2.3-2,3.8-1.9c1-0.1,2,0.3,2.8,1.1C1306,91.8,1306.3,92.9,1306.3,94z"/>
		<path d="M1314.6,103.1h-2.5c-0.9-1.2-1.6-2.5-2.1-3.8c-0.6-1.7-0.9-3.4-0.9-5.2c0-1.7,0.3-3.3,0.8-4.9c0.5-1.5,1.2-2.9,2.2-4.1
			h2.5c-1,1.2-1.7,2.5-2.1,4c-0.6,1.6-0.8,3.3-0.8,5.1c0,1.2,0.1,2.4,0.4,3.6c0.3,1.1,0.7,2.1,1.2,3.2
			C1313.6,101.7,1314.1,102.4,1314.6,103.1z"/>
		<path d="M1326.5,90.2c0,1.1-0.1,1.9-0.1,2.5v7.9c0.1,1.3-0.4,2.7-1.4,3.6c-1.1,0.9-2.5,1.4-3.9,1.3c-2.8,0-4.5-0.9-5.1-2.7l2.1-1
			c0.2,0.5,0.5,0.9,1,1.1c0.6,0.3,1.2,0.4,1.9,0.4c0.8,0.1,1.6-0.2,2.2-0.7c0.5-0.6,0.8-1.3,0.7-2.1v-1c-0.8,1-2,1.6-3.3,1.5
			c-0.8,0-1.6-0.2-2.3-0.7c-0.7-0.5-1.3-1.2-1.7-2c-0.8-1.9-0.8-4,0-5.9c0.4-0.8,0.9-1.5,1.7-2c0.7-0.5,1.5-0.7,2.3-0.7
			c0.7,0,1.4,0.2,2,0.5s1.1,0.8,1.5,1.4c0-0.4,0-0.8,0.1-1.1s0.1-0.5,0.1-0.6L1326.5,90.2z M1323.9,95.6c0-0.9-0.2-1.8-0.7-2.6
			c-0.4-0.6-1.1-1-1.9-1s-1.5,0.4-1.9,1c-0.5,0.8-0.8,1.7-0.7,2.6c0,0.9,0.2,1.8,0.7,2.6c0.7,1,2.2,1.3,3.2,0.6c0,0,0,0,0.1,0
			c0.4-0.3,0.7-0.8,0.9-1.2C1323.8,96.8,1323.9,96.2,1323.9,95.6z"/>
		<path d="M1328.3,85h2.6c0.9,1.2,1.6,2.5,2.1,3.8c0.6,1.7,0.9,3.4,0.9,5.2c0,1.7-0.3,3.3-0.8,4.9c-0.5,1.5-1.2,2.9-2.2,4.1h-2.6
			c1-1.2,1.7-2.5,2.1-4c0.6-1.6,0.8-3.4,0.8-5.1c0-1.2-0.2-2.4-0.5-3.6c-0.3-1.1-0.7-2.1-1.1-3.2C1329.3,86.5,1328.9,85.7,1328.3,85
			z"/>
		<path d="M1150.9,40.8h-2.8V29.7l-3.6,11.1h-3l-3.6-11.1v11.1h-2.6V25.9h4l3.7,11.7l3.7-11.7h4.1L1150.9,40.8z"/>
		<path d="M1158.5,29.5c1,0,2,0.2,2.8,0.7c0.7,0.4,1.2,1.1,1.4,1.9l-2.2,1c-0.1-0.4-0.4-0.8-0.7-1.1c-0.4-0.3-0.9-0.4-1.3-0.4
			c-0.8,0-1.5,0.4-2,1c-0.5,0.8-0.8,1.7-0.7,2.6c-0.1,0.9,0.2,1.9,0.7,2.6c0.5,0.6,1.2,1,2,1c0.5,0,1-0.1,1.3-0.4
			c0.3-0.3,0.6-0.7,0.7-1.1l2.2,1c-0.2,0.8-0.7,1.5-1.4,1.9c-0.9,0.5-1.8,0.8-2.8,0.7c-1,0-1.9-0.2-2.7-0.7c-0.8-0.5-1.5-1.2-1.9-2
			c-0.9-1.9-0.9-4.1,0-6c0.4-0.8,1.1-1.6,1.9-2C1156.6,29.8,1157.5,29.5,1158.5,29.5z"/>
		<path d="M1182.4,33.3c0,1.4-0.2,2.7-0.8,3.9c-0.5,1.1-1.3,2-2.3,2.6c-1.1,0.6-2.3,0.9-3.5,0.9h-5.7V25.9h5.7
			c1.2,0,2.5,0.3,3.5,0.9s1.8,1.5,2.3,2.6C1182.2,30.7,1182.5,32,1182.4,33.3z M1179.6,33.3c0.1-1.3-0.3-2.7-1.2-3.7
			c-0.8-0.9-2-1.4-3.2-1.4h-2.3v10.2h2.3c1.2,0.1,2.4-0.5,3.2-1.4C1179.3,36,1179.7,34.7,1179.6,33.3z"/>
		<path d="M1189.7,29.5c1,0,1.9,0.2,2.7,0.7c0.8,0.5,1.5,1.2,1.9,2c0.9,1.9,0.9,4.1,0,6c-0.4,0.8-1.1,1.5-1.9,2s-1.8,0.7-2.7,0.7
			c-1,0-1.9-0.2-2.8-0.7c-0.8-0.5-1.5-1.2-1.9-2c-0.9-1.9-0.9-4.1,0-6c0.4-0.9,1.1-1.6,1.9-2C1187.8,29.7,1188.7,29.5,1189.7,29.5z
			 M1189.7,31.5c-0.8,0-1.5,0.3-2,1c-0.5,0.8-0.8,1.7-0.8,2.7s0.2,1.9,0.8,2.7c0.5,0.7,1.2,1,2,1s1.5-0.3,2-1
			c0.5-0.8,0.8-1.7,0.7-2.7c0-1-0.2-1.9-0.7-2.7C1191.2,31.9,1190.5,31.5,1189.7,31.5z"/>
		<path d="M1207.2,33.5v7.3h-2.6v-6.9c0-1.5-0.7-2.3-2.1-2.3c-0.7,0-1.4,0.3-1.9,0.8c-0.5,0.6-0.7,1.4-0.7,2.2v6.2h-2.6v-8.5
			c0-1,0-1.9-0.1-2.5h2.3c0.1,0.5,0.1,1.1,0.1,1.6c0.8-1.3,2.3-2,3.8-1.9c1-0.1,2,0.3,2.8,1.1C1206.9,31.4,1207.2,32.4,1207.2,33.5z
			"/>
		<path d="M1220,38.3c0,1.2,0,2,0.1,2.5h-2.3c0,0,0-0.2,0-0.5s0-0.7-0.1-1.1c-0.4,0.6-0.9,1.1-1.5,1.4c-0.6,0.3-1.4,0.5-2.1,0.5
			c-0.8,0-1.7-0.2-2.4-0.7c-0.7-0.5-1.3-1.2-1.7-2c-0.8-1.9-0.8-4.1,0-6c0.4-0.8,1-1.5,1.7-2.1c0.7-0.5,1.5-0.7,2.4-0.7
			c0.7,0,1.4,0.2,2.1,0.5c0.6,0.3,1.1,0.8,1.5,1.4c0-0.4,0-0.8,0.1-1.1s0-0.5,0-0.5h2.3c0,0.5-0.1,1.4-0.1,2.5V38.3z M1217.3,35.3
			c0.1-1-0.2-1.9-0.8-2.7c-0.8-1.1-2.3-1.3-3.4-0.6l0,0c-0.5,0.3-0.8,0.8-1,1.3c-0.2,0.6-0.4,1.3-0.3,2c0,0.7,0.1,1.3,0.3,1.9
			c0.2,0.5,0.5,1,1,1.3c0.4,0.3,0.9,0.5,1.4,0.5c0.8,0,1.5-0.3,2-1C1217.1,37.2,1217.4,36.2,1217.3,35.3L1217.3,35.3z"/>
		<path d="M1225.3,25.2v15.6h-2.6V25.2H1225.3z"/>
		<path d="M1236.1,40.8c-0.1-0.5-0.1-1.1-0.1-1.6c-0.4,0.6-0.9,1.1-1.5,1.4c-0.6,0.3-1.4,0.5-2.1,0.5c-0.8,0-1.7-0.2-2.4-0.7
			c-0.7-0.5-1.3-1.2-1.7-2c-0.8-1.9-0.8-4.1,0-6c0.4-0.8,1-1.5,1.7-2.1c0.7-0.5,1.5-0.7,2.4-0.7c0.7,0,1.3,0.1,1.9,0.4
			s1.1,0.7,1.4,1.1v-5.8h2.6v13c0,1,0,1.9,0.1,2.5H1236.1z M1235.7,35.3c0.1-1-0.2-1.9-0.8-2.7c-0.5-0.7-1.2-1-2-1
			c-0.5,0-1,0.2-1.4,0.5s-0.8,0.8-1,1.3c-0.2,0.6-0.4,1.3-0.3,2c0,0.7,0.1,1.3,0.3,1.9c0.2,0.5,0.6,1,1,1.3s0.9,0.5,1.4,0.5
			c0.8,0,1.5-0.3,2-1C1235.5,37.2,1235.8,36.3,1235.7,35.3z"/>
		<path d="M1240.7,32.8c0-0.6,0.2-1.2,0.5-1.7c0.4-0.5,0.9-0.9,1.5-1.2c0.7-0.3,1.4-0.4,2.2-0.4c1,0,1.9,0.2,2.8,0.6
			c0.7,0.4,1.2,1,1.5,1.8l-2,0.9c-0.3-0.9-1.2-1.5-2.2-1.4c-0.4,0-0.9,0.1-1.2,0.3c-0.3,0.2-0.5,0.5-0.5,0.9s0.2,0.7,0.5,0.9
			c0.5,0.3,1.1,0.4,1.8,0.5c1.1,0.1,2.1,0.5,2.9,1.1c0.6,0.6,1,1.5,0.9,2.3c0,0.7-0.2,1.3-0.6,1.9c-0.4,0.5-0.9,1-1.6,1.2
			c-0.7,0.3-1.5,0.5-2.3,0.4c-1.1,0-2.1-0.2-3.1-0.7c-0.8-0.4-1.4-1.2-1.6-2l2-0.9c0.2,0.5,0.5,0.9,0.9,1.2c0.5,0.3,1.1,0.4,1.7,0.4
			c0.5,0,1-0.1,1.4-0.4c0.3-0.2,0.5-0.6,0.5-1s-0.2-0.8-0.5-1.1c-0.6-0.3-1.3-0.5-1.9-0.5c-1-0.1-2-0.5-2.8-1.1
			C1240.9,34.5,1240.6,33.7,1240.7,32.8z"/>
		<g id="图层_2-4">
			<g id="图层_1-2-4">
				<path class="st11" d="M1103.1,17c-8.1,0-14.7,6.6-14.7,14.7s6.6,14.7,14.7,14.7s14.7-6.6,14.7-14.7l0,0l0,0
					C1117.8,23.6,1111.2,17,1103.1,17z M1113.2,38.8v0.5h-3.3v-4.5c0-0.4,0-0.7-0.1-1.1v-0.3c0-0.3,0-0.6-0.1-0.9
					c-0.1-0.3,0-0.6-0.1-0.9l0,0c0-0.2,0-0.4-0.1-0.6c-0.1-0.3-0.1-0.6-0.1-0.8V30c0-0.3-0.1-0.6-0.1-0.9c-0.1-0.5-0.2-1-0.2-1.4
					c-0.1-0.6-0.3-1.3-0.4-1.9c-0.1-0.5-0.3-0.9-0.5-1.4c-0.1-0.2-0.2-0.4-0.4-0.6c-0.1-0.1-0.2-0.2-0.3-0.2h-0.2
					c-0.1,0.1-0.2,0.2-0.3,0.2c-0.2,0.2-0.3,0.5-0.4,0.8c-0.2,0.5-0.4,1-0.5,1.5c-0.2,0.8-0.4,1.7-0.6,2.5c-0.1,0.5-0.2,1-0.2,1.6
					s-0.1,0.9-0.2,1.4l-0.1,0.7v0.2c0,0.4,0,0.8-0.1,1.1V38h-3.6v-3c0-0.5,0-0.9-0.1-1.4v-0.9c0-0.3-0.1-0.9-0.1-1.3s-0.1-0.7-0.1-1
					s-0.1-1-0.2-1.5s-0.2-1-0.3-1.5c-0.1-0.8-0.4-1.6-0.7-2.4c-0.1-0.3-0.3-0.6-0.5-0.9c-0.1-0.1-0.2-0.3-0.3-0.4l-0.1-0.1h-0.2
					c-0.1,0.1-0.2,0.2-0.3,0.3c-0.2,0.2-0.3,0.5-0.4,0.8c-0.2,0.5-0.4,1.1-0.5,1.6c-0.2,0.6-0.3,1.3-0.4,2s-0.2,1.1-0.3,1.7
					s-0.1,0.8-0.1,1.2s-0.1,0.8-0.1,1.2c0,0.3,0,0.5,0,0.8v0.2c0,0.3,0,0.7-0.1,1c0,0.3,0,0.6,0,0.9v3.8l-0.3,0.1
					c-0.2,0.1-2.6,0-2.6,0l-0.4-0.1v-3.7c0-0.3,0.1-0.8,0.1-1.2s0.1-0.9,0.1-1.4c0.1-0.5,0.2-1.1,0.2-1.6s0.2-1.3,0.4-2
					c0.2-1,0.5-1.9,0.7-2.8c0.2-0.6,0.4-1.2,0.7-1.9c0.3-0.6,0.6-1.2,1-1.8c0.2-0.4,0.5-0.7,0.9-1c0.3-0.3,0.7-0.5,1.1-0.6
					c0.6-0.2,1.2-0.1,1.7,0.1c0.4,0.2,0.7,0.4,1,0.7c0.4,0.4,0.7,0.8,0.9,1.2c0.4,0.7,0.7,1.4,1,2.1c0,0.1,0.1,0.3,0.2,0.4l0.2-0.5
					c0.2-0.6,0.6-1.2,0.9-1.8c0.3-0.4,0.6-0.8,0.9-1.2c0.2-0.3,0.5-0.5,0.8-0.7c0.8-0.5,1.8-0.5,2.6,0c0.4,0.2,0.7,0.5,1,0.9
					c0.4,0.4,0.7,0.9,0.9,1.4c0.4,0.7,0.7,1.4,0.9,2.1c0.3,1,0.6,2,0.8,3c0.1,0.7,0.3,1.3,0.4,1.9s0.2,1.1,0.2,1.7
					c0.1,0.5,0.1,1.1,0.2,1.5c0,0.3,0,0.6,0,0.9c0,0.5,0.1,1,0.1,1.5L1113.2,38.8L1113.2,38.8z"/>
			</g>
		</g>
		<g id="图层_2-5">
			<g id="图层_1-2-5">
				<path class="st11" d="M851.5,33.3H851c-0.4,0-0.7,0.2-0.8,0.6v2.5c0,0.4,0.3,0.7,0.6,0.7l0,0h0.7c1,0.1,1.8-0.7,1.9-1.7v-0.2
					c0.1-1-0.6-1.8-1.6-1.9C851.7,33.3,851.6,33.3,851.5,33.3L851.5,33.3z"/>
				<path class="st11" d="M851,29.7h0.4c0.9,0,1.6-0.7,1.7-1.6c0-0.1,0-0.1,0-0.2c0.1-0.8-0.5-1.6-1.4-1.7l0,0c-0.1,0-0.2,0-0.3,0
					H851c-0.4,0-0.7,0.2-0.7,0.6l0,0V29c0,0.4,0.3,0.7,0.6,0.7C850.9,29.7,850.9,29.7,851,29.7L851,29.7z"/>
				<path class="st11" d="M851.6,17c-8.1,0-14.7,6.6-14.7,14.7s6.6,14.7,14.7,14.7c8.1,0,14.7-6.6,14.7-14.7l0,0
					C866.3,23.6,859.7,17,851.6,17L851.6,17z M852.7,41.6h-4.2c-2.4,0-3.5-1.4-3.5-3.2V25.1c-0.1-1.7,1.2-3.2,2.9-3.3
					c0.2,0,0.4,0,0.6,0h3.6c3.8,0,6.2,1.9,6.2,5.5c0,1.2-0.4,2.4-1.2,3.2l-0.1,0.1l0,0c-0.1,0.1-0.2,0.2-0.2,0.3s0.1,0.2,0.3,0.4
					l0,0c1.3,1,2,2.6,1.9,4.2C859.1,38.9,856.7,41.6,852.7,41.6L852.7,41.6z"/>
			</g>
		</g>
		<rect x="836.9" y="136.5" class="st0" width="95.6" height="16.6"/>
		<rect x="836.9" y="121" class="st10" width="95.6" height="15.5"/>
		<rect x="836.9" y="104.8" class="st8" width="95.6" height="16.2"/>
		<rect x="836.9" y="89.7" class="st7" width="95.6" height="15.1"/>
		<rect x="836.9" y="80.4" class="st9" width="95.6" height="9.3"/>
		<g>
			<path d="M729.2,142.9c1.6,0,2.7-0.8,3.2-2.4l2.3,1.1c-0.3,1.1-1,2-1.9,2.6s-2.1,1-3.5,1c-1.3,0-2.5-0.3-3.6-1
				c-1-0.6-1.9-1.5-2.4-2.7c-0.6-1.2-0.9-2.5-0.9-4s0.3-2.9,0.9-4c0.6-1.2,1.4-2.1,2.4-2.7c1-0.6,2.2-1,3.6-1c1.4,0,2.6,0.3,3.5,0.9
				c0.9,0.6,1.6,1.5,1.9,2.6l-2.3,1.1c-0.5-1.6-1.5-2.4-3.2-2.4c-0.8,0-1.5,0.2-2.1,0.7s-1.1,1.1-1.4,1.9c-0.3,0.8-0.5,1.8-0.5,2.8
				s0.2,2,0.5,2.8s0.8,1.4,1.4,1.9S728.4,142.9,729.2,142.9z"/>
			<path d="M746.9,142.4c0,1.2,0,2,0.1,2.5h-2.3c0,0,0-0.2,0-0.5s-0.1-0.7-0.1-1.1c-0.4,0.6-0.9,1.1-1.5,1.4s-1.3,0.5-2.1,0.5
				c-0.9,0-1.7-0.2-2.4-0.7s-1.3-1.2-1.7-2c-0.4-0.9-0.6-1.9-0.6-3s0.2-2.1,0.6-3c0.4-0.9,1-1.6,1.7-2.1s1.5-0.7,2.4-0.7
				c0.8,0,1.5,0.2,2.1,0.5s1.1,0.8,1.5,1.4c0-0.4,0-0.8,0.1-1.1c0-0.3,0-0.5,0-0.5h2.3c0,0.5-0.1,1.4-0.1,2.5V142.4z M744.3,139.4
				c0-1.1-0.3-2-0.8-2.7s-1.2-1-2-1c-0.5,0-1,0.2-1.4,0.5s-0.7,0.7-1,1.3s-0.3,1.2-0.3,2c0,0.7,0.1,1.4,0.3,1.9c0.2,0.6,0.5,1,1,1.3
				s0.9,0.5,1.4,0.5c0.8,0,1.5-0.3,2-1C744,141.4,744.3,140.5,744.3,139.4z"/>
			<path d="M752.2,129.4V145h-2.6v-15.6H752.2z"/>
		</g>
	</g>
</g>
</svg>
